<svg width="189" height="52" viewBox="0 0 189 52" fill="none" xmlns="http://www.w3.org/2000/svg">
<path d="M116.589 40.4054C117.263 39.5565 118.43 39.485 119.415 39.6995C119.415 40.0727 119.418 40.4458 119.425 40.8221C118.999 40.7723 118.579 40.7226 118.156 40.6728C117.139 41.2698 117.223 42.4826 117.22 43.5087C117.848 43.5149 118.47 43.518 119.101 43.5212C119.095 43.8197 119.079 44.4105 119.073 44.709C118.461 44.7121 117.854 44.7152 117.245 44.7214C117.236 46.9945 117.282 49.2676 117.214 51.5376C116.903 51.5376 116.281 51.5345 115.97 51.5314C115.917 49.2552 115.961 46.979 115.942 44.7028C115.516 44.709 115.093 44.7183 114.67 44.7246C114.658 44.3203 114.642 43.913 114.633 43.5087C115.062 43.5118 115.494 43.518 115.926 43.5212C115.964 42.4639 115.752 41.2294 116.589 40.4054Z" fill="black"/>
<path d="M77.6621 40.0446C78.1938 40.0384 78.7256 40.0415 79.2573 40.0539C79.2418 40.4457 79.3475 40.8624 79.1982 41.2387C78.8873 41.786 78.0819 41.7331 77.7088 41.2884C77.6559 40.8749 77.6683 40.4582 77.6621 40.0446Z" fill="black"/>
<path d="M64.332 40.4055C64.9135 40.4055 65.4981 40.4086 66.0827 40.4117C67.3452 43.3502 68.7507 46.2296 69.8297 49.2428C71.257 46.3478 72.5133 43.3751 73.8317 40.4334C74.3976 40.4179 74.9636 40.4086 75.5295 40.4023C75.458 44.0747 75.6508 47.7658 75.4393 51.4288C75.1439 51.4754 74.5531 51.5687 74.2608 51.6123C74.1644 48.6333 74.2515 45.6513 74.2235 42.6723C72.7713 45.5797 71.6208 48.6302 70.1873 51.5439C70.0629 51.547 69.8142 51.547 69.6929 51.5501C68.2345 48.6333 67.0498 45.5891 65.6411 42.6506C65.551 45.6108 65.6536 48.5742 65.5821 51.5376C65.2742 51.5345 64.6616 51.5314 64.3538 51.5283C64.3134 47.8217 64.3476 44.1151 64.332 40.4055Z" fill="black"/>
<path d="M128.625 40.4085C130.575 40.5422 132.951 39.8861 134.499 41.4284C135.323 42.1281 135.351 43.2693 135.274 44.2643C135.224 45.732 133.905 46.8608 132.55 47.1718C131.679 47.2992 130.799 47.2433 129.925 47.2526C129.922 48.6239 129.922 49.9921 129.928 51.3603C129.605 51.3665 128.952 51.3821 128.625 51.3883C128.622 47.7284 128.622 44.0684 128.625 40.4085ZM129.925 41.6088C129.922 43.0765 129.922 44.5473 129.925 46.0181C130.861 45.9746 131.866 46.1674 132.752 45.7694C134.117 45.1754 134.366 43.0423 133.212 42.125C132.257 41.4409 131.023 41.6461 129.925 41.6088Z" fill="black"/>
<path d="M150.437 41.6491C150.853 41.4968 151.276 41.3444 151.696 41.1982C151.705 41.9694 151.708 42.7375 151.715 43.5117C152.361 43.5117 153.011 43.5117 153.661 43.5117C153.642 43.916 153.624 44.3202 153.608 44.7245C152.971 44.7183 152.34 44.7151 151.708 44.7151C151.73 46.2388 151.662 47.7656 151.727 49.2893C151.721 49.6624 151.889 50.0076 152.109 50.303C152.619 50.4523 153.164 50.3745 153.692 50.3994C153.667 50.6979 153.611 51.2949 153.583 51.5935C152.424 51.7178 150.772 51.6681 150.517 50.2159C150.349 48.3937 150.492 46.556 150.452 44.7276C150.023 44.7214 149.594 44.7183 149.171 44.7151C149.155 44.314 149.143 43.916 149.137 43.518C149.572 43.5117 150.011 43.5055 150.452 43.5024C150.446 42.8836 150.443 42.2648 150.437 41.6491Z" fill="black"/>
<path d="M120.608 41.6584C121.04 41.506 121.475 41.3537 121.914 41.2075C121.917 41.9662 121.92 42.7281 121.92 43.4868C122.632 43.5055 123.344 43.5179 124.056 43.5366C123.954 43.9719 124.056 44.9172 123.301 44.712C122.837 44.7337 122.377 44.74 121.917 44.7493C122.013 46.615 121.665 48.5367 122.218 50.3527C122.844 50.3682 123.469 50.3807 124.1 50.3962C123.923 50.8129 123.972 51.7271 123.279 51.6058C122.411 51.7644 121.603 51.4566 120.94 50.9124C120.368 48.8943 120.707 46.7829 120.623 44.7213C120.2 44.7151 119.781 44.712 119.364 44.7058C119.358 44.4104 119.342 43.8195 119.336 43.5241C119.762 43.5179 120.191 43.5117 120.623 43.5055C120.617 42.8898 120.614 42.2741 120.608 41.6584Z" fill="black"/>
<path d="M77.7226 43.5275C78.1704 43.5182 78.6212 43.5088 79.0721 43.4995C79.1561 46.1955 79.1996 48.9008 79.0348 51.5968C78.5901 51.5221 78.1486 51.4506 77.707 51.3791C77.735 48.7609 77.7101 46.1457 77.7226 43.5275Z" fill="black"/>
<path d="M87.9338 43.5118C88.3692 43.5118 88.8045 43.5118 89.2429 43.515C89.2398 43.8166 89.2305 44.4167 89.2274 44.7184C89.8959 43.7948 90.863 43.2506 92.026 43.4341C92.0291 43.7544 92.0384 44.4012 92.0446 44.7215C91.4165 44.793 90.5987 44.4851 90.1167 45.0293C89.4606 45.6201 89.2523 46.5437 89.2461 47.3957C89.2274 48.7763 89.2678 50.1538 89.2212 51.5345C88.7983 51.5345 88.3754 51.5345 87.9556 51.5376C87.9027 48.8634 87.9369 46.1861 87.9338 43.5118Z" fill="black"/>
<path d="M111.881 43.5305C113.134 43.913 114.079 45.1693 114.157 46.4722C114.238 47.7129 114.297 49.0935 113.526 50.1477C111.955 52.4052 107.848 52.1036 106.843 49.4449C106.28 47.7067 106.38 45.4429 107.882 44.1835C108.976 43.2351 110.54 43.3657 111.881 43.5305ZM109.794 44.5256C107.891 45.0511 107.412 47.5574 108.199 49.1526C108.902 50.7758 111.576 50.9748 112.475 49.448C112.988 48.6582 112.91 47.6662 112.873 46.7707C112.81 45.303 111.243 44.0623 109.794 44.5256Z" fill="black"/>
<path d="M143.682 43.5337C144.157 43.5274 144.633 43.5243 145.112 43.5212C145.118 43.8197 145.134 44.423 145.143 44.7215C145.476 44.3204 145.771 43.8664 146.222 43.5803C146.766 43.4093 147.351 43.4932 147.914 43.4777C147.917 43.7917 147.923 44.4261 147.926 44.7402C147.326 44.7246 146.729 44.7153 146.132 44.7122C145.684 45.3372 145.087 45.9591 145.143 46.7893C145.081 48.3659 145.152 49.9455 145.112 51.5252C144.639 51.5252 144.167 51.5221 143.697 51.5221C143.669 48.8603 143.691 46.1954 143.682 43.5337Z" fill="black"/>
<path d="M155.259 43.5741C155.738 43.543 156.22 43.5181 156.702 43.4932C156.711 43.7607 156.726 44.2986 156.736 44.5691C157.498 43.7731 158.496 43.2351 159.631 43.4341C160.983 43.3315 161.835 44.6904 161.923 45.8938C162.044 47.7658 161.96 49.6501 161.947 51.5283C161.636 51.5314 161.008 51.5439 160.694 51.547C160.554 49.7559 160.766 47.9523 160.564 46.1674C160.517 45.4025 159.926 44.8925 159.422 44.3919C158.188 44.3235 156.944 45.1506 156.761 46.4131C156.649 48.114 156.773 49.8274 156.695 51.5314C156.276 51.5314 155.862 51.5345 155.448 51.5376C155.361 48.8821 155.2 46.2327 155.259 43.5741Z" fill="black"/>
<path d="M171.406 43.5554C171.873 43.5399 172.345 43.5243 172.818 43.5119C172.824 43.8197 172.84 44.4385 172.846 44.7464C173.471 43.7918 174.454 43.2352 175.623 43.4373C175.629 43.7638 175.641 44.4199 175.648 44.7464C175.044 44.7308 174.447 44.7246 173.85 44.7184C173.427 45.3496 172.883 45.9778 172.868 46.7769C172.762 48.3597 172.862 49.9487 172.809 51.5345C172.342 51.5252 171.879 51.5159 171.416 51.5066C171.4 48.8572 171.412 46.2079 171.406 43.5554Z" fill="black"/>
<path d="M82.4134 43.9161C83.6013 43.1574 85.0814 43.4901 86.403 43.5398C86.4216 43.885 86.4621 44.5722 86.4838 44.9143C85.5354 44.6593 84.444 44.1586 83.508 44.7215C81.8009 45.561 81.5396 48.0394 82.5098 49.5195C83.3836 50.8504 85.2493 50.555 86.4776 49.93C86.459 50.3653 86.4434 50.8037 86.4279 51.2391C85.0317 51.7055 83.3245 51.9138 82.0807 50.9654C79.8791 49.2801 80.0813 45.3931 82.4134 43.9161Z" fill="black"/>
<path d="M94.1334 43.7918C95.1533 43.2819 96.3598 43.4031 97.4606 43.5182C98.751 43.8696 99.7368 45.1414 99.8301 46.4723C99.914 47.6788 99.9762 49.019 99.2268 50.0514C97.8648 52.1752 94.2733 52.2094 92.8709 50.1136C92.1308 49.1745 92.2023 47.9058 92.2552 46.7801C92.2987 45.5487 93.0388 44.3609 94.1334 43.7918ZM95.458 44.5226C93.4741 45.0761 93.045 47.7285 93.9654 49.3331C94.8548 51.0215 97.8648 50.8412 98.3934 48.9288C98.7199 47.6321 98.7479 45.9716 97.644 45.0232C97.0688 44.4666 96.2105 44.3609 95.458 44.5226Z" fill="black"/>
<path d="M101.603 44.0994C102.56 43.0515 104.109 43.518 105.35 43.5522C105.365 43.8849 105.393 44.5534 105.409 44.8862C104.426 44.6312 102.933 43.9657 102.299 45.166C101.917 46.6057 103.692 46.8172 104.557 47.4111C106.006 48.0206 106.18 50.2719 104.861 51.1022C103.677 51.9386 102.091 51.665 100.806 51.2265C100.8 50.8969 100.785 50.2377 100.775 49.9112C101.798 50.275 102.952 50.7135 104.022 50.2626C104.395 49.905 104.637 49.1898 104.162 48.8135C103.192 47.9957 101.708 47.8029 101.058 46.6244C100.856 45.7693 100.813 44.6809 101.603 44.0994Z" fill="black"/>
<path d="M136.445 43.913C137.72 43.4932 139.085 43.2569 140.419 43.5492C141.138 43.9285 141.787 44.6437 141.778 45.502C141.843 47.5387 141.819 49.5786 141.769 51.6122C141.013 51.6775 140.376 51.3635 140.488 50.5145C139.542 51.6589 137.817 52.0165 136.539 51.2329C135.214 50.3653 135.282 48.2073 136.57 47.3335C137.776 46.5126 139.322 46.7147 140.68 46.3322C140.453 45.6263 140.127 44.9609 139.605 44.4261C138.442 44.3763 137.347 44.7619 136.383 45.39C136.399 45.02 136.43 44.283 136.445 43.913ZM137.204 48.3161C136.905 48.7856 136.996 49.42 137.126 49.9362C137.86 50.7042 139.309 50.6389 139.953 49.7807C140.55 49.1712 140.522 48.2726 140.612 47.4858C139.474 47.6817 138.174 47.6009 137.204 48.3161Z" fill="black"/>
<path d="M164.373 50.7447C162.47 48.7328 162.931 44.8055 165.53 43.5834C166.752 43.3378 168.338 43.2103 169.23 44.2675C170.101 45.2501 170.11 46.6152 170.207 47.8466C168.354 47.8684 166.497 47.8559 164.644 47.8559C164.65 48.8603 165.082 49.8834 166.046 50.3125C167.25 50.667 168.543 50.3778 169.56 49.6719C169.51 50.1726 169.464 50.6732 169.417 51.1769C167.8 51.662 165.704 52.0818 164.373 50.7447ZM164.625 46.6619C166.043 46.6961 167.461 46.693 168.882 46.6681C168.724 45.7446 168.22 44.9672 167.48 44.4043C166.049 44.2706 164.868 45.2843 164.625 46.6619Z" fill="black"/>
<path d="M21.611 0.463309C22.5345 0.102602 23.4456 0.593911 24.335 0.814689C27.8052 1.80663 31.2662 2.83589 34.7395 3.8154C34.7302 15.3394 34.7613 26.8665 34.724 38.3936C30.5292 39.3669 26.437 40.8253 22.2329 41.7021C18.2745 40.3339 14.3658 38.8072 10.426 37.3737C7.04899 36.2076 3.74354 34.8331 0.332363 33.7697L1.13152 33.8972C1.13152 33.5676 1.13463 33.2348 1.14396 32.9052C0.870315 33.1011 0.323033 33.4929 0.0493929 33.6888C-0.0159077 25.349 0.0711599 17.0092 0.00585938 8.66941C0.571797 8.42064 1.14084 8.17499 1.71611 7.95421C8.36122 5.49145 15.0063 3.02558 21.611 0.463309ZM7.68334 10.2802C7.65535 16.8537 7.68023 23.4242 7.6709 29.9978C7.78595 30.6073 7.08319 30.7752 6.65718 30.968C4.82255 31.6583 3.0159 32.4264 1.16572 33.0825C1.49844 33.381 1.75654 33.8847 2.28516 33.8288C7.35061 34.5377 12.4161 35.2374 17.4815 35.9308C19.1016 36.1392 20.7123 36.4439 22.348 36.4657C22.3293 26.5742 22.3542 16.6827 22.3355 6.79124C17.4535 7.96354 12.5684 9.11718 7.68334 10.2802Z" fill="#EB3C00"/>
<path d="M89.6541 6.86603C90.8326 6.78207 92.0143 6.79762 93.1928 6.91578C93.227 7.82688 93.2301 8.74109 93.2332 9.65529C91.9272 9.11423 90.0926 8.89967 89.1131 10.1435C87.9532 11.7294 88.4165 13.7972 88.3201 15.6225C89.735 15.6412 91.1685 15.5168 92.5709 15.806C92.5584 16.5647 92.5553 17.3234 92.5616 18.0853C91.1498 18.1288 89.735 18.1133 88.3263 18.1133C88.3139 23.2409 88.3232 28.3717 88.3201 33.4993C87.3624 33.4993 86.4046 33.4993 85.4469 33.4993C85.4438 28.3717 85.4531 23.2409 85.4407 18.1133C83.149 18.1133 80.8572 18.1164 78.5655 18.1102C78.5468 23.2378 78.5624 28.3654 78.5561 33.4931C77.5984 33.3843 76.451 33.7792 75.6145 33.2661C75.5617 28.2162 75.6238 23.1632 75.5834 18.1102C74.6008 18.1133 73.6182 18.1133 72.6387 18.1164C72.6387 17.3297 72.6387 16.5429 72.6387 15.7562C73.6151 15.7562 74.5915 15.7562 75.571 15.7656C75.6705 14.301 75.4311 12.8084 75.7638 11.3655C75.7918 11.1883 75.8539 10.8338 75.885 10.6535C76.3484 9.50604 77.0449 8.43324 78.0804 7.72426C79.5947 6.64214 81.6035 6.61105 83.3511 7.04016C83.3542 7.90462 83.3511 8.76596 83.3542 9.63042C81.9735 9.04582 79.9897 8.93077 79.1065 10.386C78.1675 12.0061 78.6712 13.9807 78.581 15.7624C80.8665 15.7531 83.1489 15.7593 85.4345 15.7593C85.5277 13.5951 85.0893 11.2038 86.3891 9.30081C87.1012 8.07875 88.3637 7.34801 89.6541 6.86603Z" fill="#EB3C00"/>
<path d="M96.0757 7.45654C96.4364 7.46276 96.7971 7.46898 97.161 7.47209C97.8264 7.92608 98.6318 8.52312 98.5136 9.44044C98.4981 11.0885 96.0633 11.8845 95.0838 10.5288C94.2442 9.46842 94.9003 7.92919 96.0757 7.45654Z" fill="#EB3C00"/>
<path d="M51.5156 10.8057C54.5474 8.29315 58.8385 7.58106 62.6011 8.56368C65.6422 9.34728 68.1921 11.5799 69.5571 14.3848C69.8805 15.2181 70.1791 16.0639 70.4527 16.9159C71.2239 20.5634 70.9782 24.5157 69.3146 27.8895C67.8749 30.8654 64.9581 33.0452 61.718 33.6577C58.4996 34.2828 54.9485 33.863 52.2214 31.9444C49.9421 30.4083 48.4278 27.9237 47.7343 25.2962C47.0502 22.7494 47.128 20.0659 47.6224 17.4912C48.2661 14.9662 49.4601 12.4755 51.5156 10.8057ZM53.9472 12.5812C51.954 14.1578 50.8625 16.6236 50.4925 19.0895C50.0323 22.3079 50.6231 25.831 52.6941 28.415C54.0498 30.1284 56.1643 30.9804 58.2695 31.31C60.3249 31.2758 62.5171 30.9928 64.1963 29.6993C66.1833 28.2409 67.2841 25.8683 67.6417 23.4771C67.9309 21.0547 67.822 18.5671 67.0695 16.2349C66.2704 14.2262 64.8369 12.3729 62.8032 11.5115C59.9424 10.3237 56.4007 10.6129 53.9472 12.5812Z" fill="#EB3C00"/>
<path d="M139.929 9.60847C141.919 8.41129 144.297 8.05058 146.586 8.14387C148.169 8.40507 149.798 8.88083 150.946 10.0718C152.852 11.9158 152.995 15.016 151.866 17.3077C151.039 18.9247 149.397 19.9539 147.681 20.4079C149.145 20.7686 150.691 21.1978 151.757 22.3359C153.822 24.2016 153.887 27.4511 152.703 29.8143C151.465 32.1962 148.853 33.5769 146.253 33.8443C143.784 34.0651 141.157 33.8816 138.986 32.5787C138.996 31.5246 138.996 30.4735 139.005 29.4194C139.614 29.9045 140.267 30.3305 140.958 30.6974C141.577 30.8902 142.198 31.0954 142.814 31.3162C145.084 31.5712 147.789 31.5961 149.419 29.7117C150.619 28.5581 150.572 26.7949 150.426 25.265C150.025 24.4566 149.612 23.589 148.825 23.0853C147.721 22.2612 146.325 22.0871 145.013 21.8445C143.84 21.7855 142.665 21.7948 141.493 21.7979C141.49 21.0112 141.486 20.2245 141.483 19.4409C143.374 19.2076 145.386 19.615 147.168 18.7661C148.629 18.1691 149.711 16.6703 149.587 15.0595C149.739 13.5545 149.17 11.8318 147.705 11.1695C145.156 9.95674 142.167 10.7901 139.95 12.3262C139.944 11.4182 139.944 10.5133 139.929 9.60847Z" fill="#EB3C00"/>
<path d="M161.65 9.60849C164.278 7.78629 167.73 7.84537 170.677 8.78756C170.693 9.71732 170.696 10.6471 170.702 11.5768C168.473 10.5382 165.693 10.0967 163.494 11.44C161.175 12.8642 160.105 15.5726 159.548 18.1193C159.449 19.2014 159.412 20.2836 159.387 21.3719C160.192 19.7674 161.632 18.4303 163.423 18.0665C165.534 17.7026 167.916 17.9359 169.598 19.3818C173.737 22.8427 172.916 30.3834 168.215 32.9799C166.234 34.0558 163.774 34.2237 161.66 33.4587C159.443 32.6223 157.959 30.5544 157.194 28.3871C156.125 24.9728 156.184 21.3128 156.781 17.8177C157.487 14.6802 158.858 11.4307 161.65 9.60849ZM160.469 22.3639C159.228 23.9186 159.352 26.0362 159.856 27.8491C160.407 29.0929 161.184 30.3274 162.428 30.968C163.482 31.5992 164.754 31.4064 165.92 31.3473C167.534 30.6819 168.812 29.2546 169.12 27.5133C169.483 25.2899 169.216 22.5877 167.251 21.1573C165.146 19.7736 161.924 20.2214 160.469 22.3639Z" fill="#EB3C00"/>
<path d="M176.298 8.62274C180.142 8.61963 183.982 8.62274 187.826 8.61963C187.826 9.47165 187.826 10.3237 187.826 11.1788C184.816 11.1788 181.805 11.1757 178.795 11.1788C178.68 13.598 178.407 16.0017 178.348 18.424C181.212 18.2437 184.439 18.3028 186.709 20.3209C188.04 21.375 188.668 23.0075 188.964 24.6338C189.119 26.8913 188.799 29.3728 187.188 31.0892C185.683 32.8679 183.366 33.7852 181.078 33.894C179.007 33.9998 176.861 33.8629 174.971 32.9332C174.977 31.8915 174.98 30.8498 174.996 29.8081C177.039 31.254 179.591 31.6956 182.045 31.3224C183.836 30.7285 185.537 29.4225 185.904 27.4728C186.09 25.9927 186.153 24.3073 185.164 23.0759C184.508 22.1306 183.46 21.5896 182.418 21.1791C180.101 20.7002 177.716 20.7904 175.391 21.1293C175.789 16.9688 175.963 12.7895 176.298 8.62274Z" fill="#EB3C00"/>
<path d="M106.221 15.9769C108.811 14.9632 111.825 14.9414 114.343 16.1884C114.331 17.1492 114.331 18.1101 114.334 19.0709C112.617 18.0665 110.578 17.3451 108.584 17.88C106.321 18.3526 104.592 20.3334 104.104 22.5474C103.628 24.1799 103.83 25.9057 104.2 27.5382C104.837 29.1365 106.028 30.6136 107.726 31.136C109.968 31.8916 112.381 31.2386 114.318 30.001C114.321 30.8716 114.321 31.7392 114.34 32.6068C110.752 34.799 105.431 34.3357 102.77 30.8965C100.832 28.4928 100.615 25.1998 101.153 22.2737C101.722 19.5342 103.625 17.0715 106.221 15.9769Z" fill="#EB3C00"/>
<path d="M123.232 15.2742C124.077 15.24 124.923 15.2431 125.769 15.2866C126.266 15.4328 126.776 15.5603 127.283 15.6878C129.158 16.4652 130.635 18.0883 131.239 20.0256C131.817 21.711 131.801 23.5114 131.777 25.2714C127.607 25.2652 123.44 25.2745 119.273 25.2683C119.261 26.8013 119.556 28.4152 120.573 29.6186C121.235 30.4861 122.268 30.9152 123.241 31.3319C125.679 31.6957 128.219 31.2293 130.231 29.7647C130.293 29.6652 130.418 29.4662 130.48 29.3667C130.53 30.3213 130.53 31.2791 130.536 32.2337C128.154 33.8475 125.11 34.2082 122.32 33.7325C119.624 33.2661 117.463 31.0614 116.739 28.4711C115.697 24.8547 116.12 20.5449 118.757 17.6934C119.92 16.3905 121.562 15.666 123.232 15.2742ZM121.941 18.4055C120.396 19.3695 119.469 21.1357 119.289 22.9237C122.451 22.9237 125.617 22.9206 128.779 22.9237C128.742 22.1619 128.686 21.4 128.571 20.6475C128.207 19.9852 127.908 19.2575 127.321 18.7569C125.878 17.4478 123.561 17.3949 121.941 18.4055Z" fill="#EB3C00"/>
<path d="M95.125 15.759C96.0734 15.759 97.0218 15.759 97.9733 15.7559C97.964 21.6702 97.9765 27.5877 97.9671 33.5021C97.0218 33.4989 96.0734 33.4989 95.1281 33.5021C95.125 27.5877 95.1343 21.6733 95.125 15.759Z" fill="#EB3C00"/>
</svg>
