<svg width="177" height="95" viewBox="0 0 177 95" fill="none" xmlns="http://www.w3.org/2000/svg">
<g clip-path="url(#clip0_280_3211)">
<path d="M18.2542 0H176.156C176.202 31.6681 176.105 63.3319 176.101 95H0.845703C0.849927 84.1344 0.841479 73.273 0.849927 62.4074C6.6584 62.4879 12.4669 62.4158 18.2753 62.4498C18.2542 41.6304 18.2965 20.8152 18.2542 0ZM35.2319 14.2076C32.6973 16.396 32.2453 20.5522 34.2983 23.2156C36.5794 26.4813 41.9486 27.1301 44.669 24.085C46.0842 22.6728 46.3546 20.5734 46.2278 18.6607C44.0861 18.665 41.9486 18.6395 39.8068 18.6862C39.8111 19.246 39.8153 19.8058 39.8153 20.3656C41.3445 20.4292 42.8737 20.4165 44.4029 20.4292C44.1241 21.3241 43.9087 22.325 43.1567 22.9569C41.3656 24.7 38.1889 24.5685 36.4865 22.7533C35.0544 21.4641 34.8221 19.3393 35.2741 17.5538C35.988 15.4036 38.3199 13.9446 40.5588 14.2754C41.5811 14.4069 42.4428 15.0092 43.2835 15.552C43.727 15.0982 44.1452 14.6147 44.517 14.0931C41.9148 11.8623 37.7411 11.8156 35.2319 14.2076ZM75.625 12.8674C75.5363 17.1721 75.587 21.4725 75.5786 25.773C76.1573 25.7815 76.736 25.7857 77.3148 25.79C77.3528 21.4853 77.4035 17.1721 77.2852 12.8674C76.7318 12.8674 76.1784 12.8717 75.625 12.8674ZM49.5777 17.6132C46.2152 18.8982 46.1518 24.3777 49.5397 25.6627C52.2729 27.0368 55.9945 24.8018 55.7199 21.6507C55.9903 18.5674 52.2729 16.2221 49.5777 17.6132ZM59.2473 17.5156C57.4604 18.1984 56.2268 20.1366 56.455 22.0578C56.5901 24.4371 58.9051 26.3625 61.2665 26.019C63.9658 25.9766 66.0147 22.9188 65.0557 20.3911C64.5277 17.91 61.5073 16.5699 59.2473 17.5156ZM66.0189 21.6592C65.7527 24.946 70.0574 27.4609 72.5962 25.1029C72.5159 26.1674 72.5117 27.5203 71.3585 28.0165C70.0236 28.7757 68.6844 27.8257 67.8987 26.7569C67.3707 26.9435 66.8469 27.1344 66.323 27.3252C67.0158 29.2634 69.2336 30.4042 71.219 29.8868C73.12 29.6281 74.3493 27.7239 74.3746 25.896C74.4591 23.0714 74.3789 20.2469 74.4042 17.4266C73.8086 17.4266 73.2129 17.4266 72.6215 17.4266C72.5835 17.6047 72.5075 17.9609 72.4695 18.1348C69.9602 15.7598 65.7358 18.4571 66.0189 21.6592ZM80.5422 17.6301C77.8259 18.8473 77.319 22.9866 79.5452 24.9036C81.4124 26.7484 84.7032 26.2353 86.1901 24.1487C85.6748 23.8179 85.1594 23.4913 84.6398 23.169C83.6471 24.683 81.1082 24.7127 80.3605 22.9569C82.3164 22.219 84.2174 21.3623 86.1606 20.5946C85.7677 18.1094 82.8233 16.3366 80.5422 17.6301ZM32.9549 30.0607C32.9465 36.4393 32.9507 42.8179 32.9507 49.1964C33.935 49.1964 34.9193 49.1964 35.9035 49.1964C35.912 46.7239 35.9078 44.2556 35.9078 41.783C37.8679 41.7194 39.8871 42.0078 41.7923 41.4098C44.1621 40.6083 45.9321 38.1824 45.7378 35.6335C45.6956 32.6732 43.0089 30.1922 40.1194 30.0946C37.7327 29.9971 35.3417 30.0904 32.9549 30.0607ZM74.6703 31.7062C74.6619 32.9955 74.6619 34.2891 74.6872 35.5783C73.8931 35.5741 73.0989 35.5699 72.3089 35.5656C72.3047 36.4308 72.3047 37.296 72.3131 38.1654C73.1031 38.1696 73.8973 38.1866 74.6872 38.1951C74.7421 41.0112 74.4676 43.8484 74.8351 46.6433C75.4476 49.294 78.7046 49.9216 80.9393 49.0565C80.9435 48.1489 80.9519 47.237 80.9688 46.3295C80.1071 46.5458 79.165 46.8723 78.3159 46.427C77.6485 45.8545 77.5725 44.9214 77.564 44.0987C77.5513 42.1223 77.5725 40.1502 77.5725 38.1739C78.6919 38.1824 79.8114 38.1696 80.9266 38.1187C80.9181 37.296 80.9181 36.4775 80.9266 35.6589C79.7987 35.5868 78.675 35.5529 77.5513 35.5105C77.5725 34.2382 77.5725 32.9658 77.5598 31.6935C76.5966 31.6978 75.6335 31.702 74.6703 31.7062ZM47.4444 37.7413C48.1077 38.2757 48.7793 38.8016 49.4552 39.3232C50.6465 37.9194 52.6362 37.2281 54.3977 37.8812C55.7622 38.335 56.4296 39.7558 56.324 41.1299C53.8612 40.2987 50.8915 40.0018 48.6737 41.6176C46.5869 43.0978 46.4644 46.4652 48.2555 48.221C50.4944 50.35 54.3597 49.9725 56.2818 47.5891C56.2818 47.9835 56.2818 48.7808 56.286 49.1752C57.2365 49.1922 58.1869 49.1964 59.1416 49.2007C59.1205 46.2319 59.1839 43.2632 59.1205 40.2944C59.0952 38.5853 58.263 36.7955 56.7 35.9982C53.7091 34.3951 49.5693 34.9761 47.4444 37.7413ZM65.06 37.631C65.0811 36.9397 65.1022 36.2527 65.1149 35.5656C64.1644 35.5571 63.2139 35.5868 62.2677 35.6589C62.331 40.1545 62.3141 44.6585 62.2761 49.1583C63.29 49.2134 64.308 49.2049 65.3219 49.1201C65.2374 46.7493 65.2754 44.3786 65.2712 42.0078C65.2289 40.8161 65.6852 39.6031 66.6441 38.8694C67.6833 37.9109 69.204 38.0933 70.5009 38.14C70.484 37.156 70.4756 36.1763 70.4629 35.1967C68.3338 34.9083 66.247 35.8286 65.06 37.631ZM86.621 37.3554C86.6083 36.7574 86.5957 36.1594 86.5872 35.5614C85.6494 35.5699 84.7158 35.5868 83.7865 35.6292C83.816 40.1417 83.8118 44.6585 83.7865 49.171C84.7581 49.1879 85.7297 49.1964 86.7055 49.2007C86.7266 46.796 86.6717 44.3871 86.7139 41.9824C86.6928 40.4004 87.4363 38.6277 89.0204 38.0763C90.6384 37.3426 93.0124 38.3478 93.0124 40.2987C93.0969 43.2547 93.0378 46.2107 93.0251 49.1667C94.0136 49.1879 95.0063 49.1964 95.9948 49.2007C95.8385 45.5873 96.3581 41.906 95.6653 38.3393C94.567 34.3824 88.7374 34.1533 86.621 37.3554ZM101.132 36.6132C98.0605 39.179 97.6592 44.3022 100.257 47.3388C102.323 49.6799 105.977 50.2864 108.744 48.908C109.994 48.3185 110.877 47.2201 111.709 46.1598C110.949 45.6891 110.168 45.2607 109.365 44.8663C108.486 45.829 107.498 46.9529 106.078 46.9529C103.759 47.3219 101.491 45.4091 101.453 43.0426C104.934 43.0723 108.419 43.0257 111.899 43.0723C112.068 41.1426 111.777 39.0645 110.539 37.508C108.359 34.692 103.823 34.3569 101.132 36.6132ZM117.429 37.5547C117.429 36.8888 117.433 36.2272 117.433 35.5614C116.496 35.5699 115.558 35.5868 114.624 35.6292C114.641 40.1333 114.675 44.6415 114.607 49.1455C115.583 49.1879 116.563 49.2049 117.543 49.2049C117.56 46.7917 117.514 44.3743 117.552 41.9612C117.547 40.4047 118.435 38.6998 119.985 38.2121C121.037 37.86 122.122 38.2078 123.166 38.3987C123.048 37.4062 123.398 36.2484 122.933 35.3451C120.847 34.7089 118.54 35.7098 117.429 37.5547ZM11.4784 68.8877C9.03671 75.3638 7.18644 82.0435 4.77012 88.5239C6.90764 88.8632 9.66613 89.4145 11.4277 87.8156C12.5852 85.008 13.5018 82.0902 14.4439 79.202C15.4408 80.8348 15.7872 82.7645 16.5096 84.5288C17.0714 85.8562 17.1263 87.6926 18.5457 88.4391C20.3748 88.6766 22.2336 88.4984 24.0711 88.5324C23.315 85.2201 22.1829 81.9926 21.0592 78.7821C19.889 75.5801 19.1033 72.2212 17.6839 69.1252C17.7008 69.0701 17.7262 68.9513 17.7431 68.8962C15.6563 68.9386 13.5652 68.9513 11.4784 68.8877ZM35.7472 69.8335C35.8613 75.8261 35.7515 81.8187 35.7979 87.8071C35.7092 88.5451 36.3724 89.0031 36.7738 89.5078C39.735 89.4484 42.7005 89.5205 45.6618 89.4824C46.5489 89.5417 47.3642 88.7444 47.2881 87.8453C47.3515 82.1623 47.3008 76.4708 47.3093 70.7877C47.3726 69.8717 47.0093 68.7944 46.042 68.523C43.2285 68.3406 40.3982 68.4763 37.5806 68.4466C36.6597 68.3109 36.2373 69.2482 35.7472 69.8335ZM100.401 70.2958C100.05 71.9837 100.261 73.7353 100.194 75.4487C98.276 75.5165 96.2821 75.1772 94.4191 75.7455C93.0969 77.4929 94.0812 79.9103 93.6292 81.9163C93.4222 81.9417 93.0082 81.9884 92.8012 82.0138C92.7717 82.158 92.7041 82.4549 92.6745 82.6033L92.7041 81.806C92.4591 82.0096 91.9733 82.4083 91.7282 82.6118L91.8972 81.8951L91.0692 81.9333L91.0819 82.6076C91.0608 82.4464 91.0185 82.1241 91.0016 81.9587C90.3258 81.9587 89.6499 81.9502 88.9782 81.9375C88.56 82.3871 88.07 82.7815 87.7531 83.3116C87.6475 84.5924 87.7405 85.8775 87.7151 87.1625C88.015 87.5866 88.3107 88.0107 88.6107 88.4348C92.4633 88.4857 96.3159 88.4391 100.168 88.5196C102.327 88.2482 105.09 89.3551 106.687 87.417C106.666 81.8612 106.636 76.3011 106.699 70.7411C106.239 70.1134 105.66 69.4772 104.811 69.49C103.337 69.4475 101.571 69.1676 100.401 70.2958ZM157.818 69.6045C157.362 70.5036 156.893 71.3984 156.445 72.3018C155.305 72.6029 154.164 72.8871 153.023 73.1754C153.104 74.3163 153.34 75.4783 153.159 76.6192C152.588 77.4377 151.87 78.1417 151.215 78.8924C151.773 79.8297 152.626 80.5507 153.218 81.4583C153.222 82.6034 153.108 83.7442 153.18 84.8893C154.253 85.0504 155.305 85.3049 156.361 85.5678C156.923 86.573 157.451 87.612 158.207 88.4942C159.102 87.9641 160.036 87.4975 160.986 87.0734C162.03 87.4636 163.056 87.9089 163.99 88.5281C164.788 87.6375 165.371 86.59 165.908 85.5254C167.023 85.2371 168.151 84.9826 169.253 84.6433C169.021 83.5788 168.848 82.5058 168.772 81.4243C169.574 80.5719 170.533 79.8127 171.045 78.7312C170.255 78.0442 169.52 77.2935 168.793 76.5429C168.806 75.4232 168.953 74.312 169.232 73.2306C168.096 72.8955 166.947 72.6283 165.798 72.3696C165.325 71.4705 165.016 70.3806 164.197 69.7359C163.065 69.6553 162.085 70.6944 160.923 70.6605C159.867 70.3721 158.916 69.7656 157.818 69.6045ZM71.6584 70.2491C71.688 71.4281 71.7006 72.6114 71.7175 73.7904C70.163 73.5147 68.5831 73.6462 67.0158 73.608C66.454 74.8464 66.7286 76.1781 66.8384 77.4759C65.1825 77.5353 63.3533 77.0603 61.8114 77.7388C61.2496 79.5201 61.8283 81.4625 61.4101 83.2946C60.3667 83.3286 59.3233 83.354 58.2841 83.371C58.2334 85.0462 58.2334 86.7214 58.2461 88.3967C59.8133 88.4136 61.3763 88.6554 62.9393 88.4688C66.4793 88.3627 70.0236 88.6384 73.5636 88.4391C74.2817 88.4645 74.721 87.8496 75.1857 87.4042C76.0855 86.7002 76.8205 85.6484 76.7234 84.4525C76.7529 79.6728 76.7276 74.8931 76.7318 70.1176C75.0548 69.931 73.2848 69.6638 71.6584 70.2491ZM123.592 70.8725C123.563 75.9406 123.605 81.0087 123.576 86.0768C123.504 86.7808 123.732 87.4424 124.099 88.0319C127.09 87.9725 130.085 88.0701 133.076 88.0065C133.659 88.0446 134.115 87.8199 134.453 87.3279C134.656 86.0556 134.605 84.7536 134.462 83.477C135.201 83.4304 135.911 83.1632 136.519 82.7433C139.206 81.1868 139.248 76.4368 136.46 74.9737C135.978 74.452 135.269 74.3672 134.61 74.2654C134.542 73.0228 134.529 71.7801 134.572 70.5375C133.967 70.2406 133.325 69.9777 132.637 70.037C130.106 70.0498 127.572 70.0243 125.037 70.0498C124.505 70.0413 123.571 70.1685 123.592 70.8725ZM119.33 76.5004C119.33 76.7379 119.326 77.2087 119.322 77.4462C120.445 77.5013 121.573 77.5183 122.701 77.5013C122.714 77.2554 122.731 76.7549 122.743 76.5047C121.603 76.5004 120.466 76.5004 119.33 76.5004ZM118.291 78.4513C118.354 78.7058 118.489 79.2147 118.557 79.4692C119.922 79.4437 121.282 79.4437 122.646 79.465C122.697 79.219 122.803 78.7312 122.853 78.4853C121.337 78.3156 119.807 78.3453 118.291 78.4513ZM119.377 80.381C119.351 80.6016 119.309 81.0341 119.288 81.2547C120.437 81.2674 121.582 81.2674 122.731 81.2674C122.731 81.0299 122.722 80.5592 122.722 80.3216C121.603 80.3429 120.488 80.3513 119.377 80.381Z" fill="white"/>
<path d="M50.3675 19.2163C52.1248 18.2578 54.2286 20.162 53.823 22.0238C53.7554 23.5294 52.1586 24.7169 50.7139 24.1995C48.4877 23.6567 48.23 20.0857 50.3675 19.2163Z" fill="white"/>
<path d="M59.7124 19.2714C61.5162 18.2026 63.7805 20.162 63.2736 22.1171C63.1257 23.7881 61.1614 24.8654 59.704 23.9832C57.9382 23.0714 58.0649 20.2384 59.7124 19.2714Z" fill="white"/>
<path d="M69.3995 19.212C71.3005 18.173 73.3197 20.6031 72.5931 22.4395C72.3186 24.0129 70.3711 24.8399 69.0616 23.9154C67.355 22.8721 67.5873 20.0136 69.3995 19.212Z" fill="white"/>
<path d="M81.2607 19.2502C82.1647 18.6607 83.4912 18.894 83.977 19.9118C82.6379 20.4462 81.3199 21.0357 79.9512 21.4937C80.2131 20.6794 80.3947 19.6531 81.2607 19.2502Z" fill="white"/>
<path d="M35.9075 32.9277C37.8971 33.0846 40.2712 32.3637 41.9314 33.8014C43.5535 35.3239 42.6833 38.3817 40.5289 38.8398C39.0081 38.9882 37.4705 38.8822 35.9455 38.9373C35.8779 36.9355 35.9159 34.9295 35.9075 32.9277Z" fill="white"/>
<path d="M101.57 40.7609C102.043 38.9542 103.674 37.4741 105.613 37.6692C107.375 37.6564 108.76 39.0857 109.056 40.7652C106.559 40.7864 104.063 40.7906 101.57 40.7609Z" fill="white"/>
<path d="M51.2514 43.0342C52.8228 42.4404 54.6308 42.6779 56.1347 43.3777C56.7092 45.9902 53.1946 48.1828 50.943 46.7918C49.4433 46.0496 49.7644 43.6152 51.2514 43.0342Z" fill="white"/>
<path d="M36.9688 70.1898C39.9511 70.1473 42.9335 70.177 45.9159 70.1643C45.9286 75.5547 45.9708 80.9451 45.8948 86.3355C42.9208 86.2634 39.9427 86.3058 36.9688 86.3101C36.973 80.9366 36.973 75.5632 36.9688 70.1898ZM40.3187 74.7913C39.3766 77.0391 38.8908 79.4438 38.0417 81.7255C38.7641 81.6576 39.5583 81.8273 40.2342 81.5092C40.872 80.7882 40.9101 79.7449 41.324 78.9009L41.4466 78.5956C41.9408 79.5286 42.3421 80.5125 42.5407 81.5516C43.394 81.7297 44.2684 81.7806 45.1386 81.717C44.412 79.3462 43.677 76.9585 42.6632 74.6938L42.5576 75.0246L42.4562 74.4011C41.7423 74.5156 41.0326 74.6556 40.3187 74.7913Z" fill="white"/>
<path d="M124.715 73.2136C127.588 73.2136 130.461 73.2178 133.337 73.2094C133.337 73.4596 133.337 73.96 133.337 74.2102C131.415 74.7743 129.455 76.2672 129.472 78.4598C129.113 80.8602 131.052 83.0953 133.35 83.4897C133.325 84.3719 133.308 85.2582 133.308 86.1446C130.461 86.2846 127.609 86.1785 124.762 86.2125C124.652 81.8781 124.618 77.5437 124.715 73.2136ZM125.353 76.5598C125.32 76.7803 125.252 77.2256 125.218 77.4462C126.228 77.5013 127.242 77.5225 128.255 77.5225C128.268 77.2596 128.285 76.7379 128.298 76.475C127.313 76.4919 126.333 76.5131 125.353 76.5598ZM125.121 78.6506C125.408 79.7957 126.853 79.3886 127.723 79.4692C127.723 79.0917 127.723 78.7143 127.727 78.3368C126.853 78.3877 125.941 78.2859 125.121 78.6506ZM125.265 80.3768C125.265 80.5846 125.265 81.0044 125.265 81.2123C126.291 81.2547 127.318 81.2716 128.348 81.2589C128.31 81.0384 128.239 80.5888 128.201 80.364C127.221 80.275 126.24 80.3344 125.265 80.3768Z" fill="white"/>
<path d="M160.124 80.0757C162.194 78.9645 163.398 76.6319 165.434 75.4232C165.67 75.9576 166.68 76.598 166.021 77.179C164.112 79.1554 162.126 81.0723 160.17 83.0105C158.861 81.6025 157.403 80.3386 156.068 78.9518C156.571 78.5531 157.048 78.1248 157.551 77.7261C158.426 78.4895 159.22 79.3462 160.124 80.0757Z" fill="white"/>
<path d="M133.507 78.7864C134.255 78.1587 134.952 77.4759 135.615 76.7592C136.021 77.1239 136.409 77.5056 136.785 77.9085C135.543 78.7482 134.656 79.9866 133.507 80.9281C132.493 80.521 131.97 79.4098 131.336 78.5743C132.071 77.8958 132.848 78.2054 133.507 78.7864Z" fill="white"/>
<path d="M127.859 71.9243C129.545 71.7505 131.256 71.9116 132.95 71.865C132.941 71.9837 132.924 72.2255 132.916 72.3484C131.125 72.323 129.334 72.3612 127.547 72.3484C127.623 72.2424 127.779 72.0304 127.859 71.9243Z" fill="white"/>
<path d="M32.9545 30.0607C35.3413 30.0904 37.7322 29.9971 40.119 30.0946C43.0084 30.1922 45.6951 32.6732 45.7374 35.6335C45.9317 38.1823 44.1617 40.6082 41.7918 41.4098C39.8866 42.0078 37.8674 41.7194 35.9073 41.783C35.9073 44.2556 35.9115 46.7239 35.9031 49.1964C34.9188 49.1964 33.9345 49.1964 32.9503 49.1964C32.9503 42.8178 32.9461 36.4393 32.9545 30.0607ZM35.9073 32.9277C35.9158 34.9294 35.8777 36.9355 35.9453 38.9373C37.4703 38.8821 39.008 38.9882 40.5287 38.8397C42.6832 38.3817 43.5534 35.3239 41.9312 33.8013C40.2711 32.3636 37.897 33.0846 35.9073 32.9277Z" fill="#767777"/>
<path d="M74.6708 31.7062C75.634 31.702 76.5971 31.6977 77.5603 31.6935C77.573 32.9658 77.573 34.2381 77.5518 35.5104C78.6755 35.5529 79.7992 35.5868 80.9271 35.6589C80.9186 36.4774 80.9186 37.2959 80.9271 38.1187C79.8119 38.1696 78.6924 38.1823 77.573 38.1738C77.573 40.1502 77.5518 42.1223 77.5645 44.0986C77.573 44.9214 77.649 45.8544 78.3164 46.427C79.1655 46.8723 80.1076 46.5457 80.9693 46.3294C80.9524 47.237 80.944 48.1488 80.9398 49.0564C78.7051 49.9216 75.4481 49.2939 74.8356 46.6433C74.4681 43.8484 74.7426 41.0111 74.6877 38.195C73.8978 38.1866 73.1036 38.1696 72.3136 38.1654C72.3052 37.2959 72.3052 36.4308 72.3094 35.5656C73.0994 35.5698 73.8935 35.5741 74.6877 35.5783C74.6624 34.289 74.6624 32.9955 74.6708 31.7062Z" fill="#767777"/>
<path d="M47.4431 37.7413C49.5679 34.9761 53.7078 34.3951 56.6986 35.9982C58.2616 36.7955 59.0938 38.5853 59.1192 40.2944C59.1825 43.2632 59.1192 46.2319 59.1403 49.2007C58.1856 49.1964 57.2351 49.1922 56.2846 49.1752C56.2804 48.7808 56.2804 47.9835 56.2804 47.5891C54.3583 49.9726 50.4931 50.35 48.2541 48.221C46.463 46.4652 46.5855 43.0978 48.6724 41.6176C50.8901 40.0018 53.8598 40.2987 56.3226 41.1299C56.4282 39.7558 55.7608 38.3351 54.3963 37.8813C52.6348 37.2281 50.6451 37.9194 49.4539 39.3232C48.778 38.8016 48.1063 38.2757 47.4431 37.7413ZM51.2492 43.0342C49.7622 43.6152 49.4412 46.0496 50.9408 46.7918C53.1924 48.1828 56.7071 45.9902 56.1325 43.3777C54.6287 42.6779 52.8207 42.4404 51.2492 43.0342Z" fill="#767777"/>
<path d="M65.0599 37.631C66.2469 35.8285 68.3337 34.9082 70.4628 35.1966C70.4755 36.1763 70.4839 37.156 70.5008 38.1399C69.204 38.0932 67.6832 37.9109 66.644 38.8694C65.6851 39.6031 65.2288 40.816 65.2711 42.0077C65.2753 44.3785 65.2373 46.7493 65.3218 49.12C64.3079 49.2048 63.2899 49.2133 62.276 49.1582C62.314 44.6584 62.3309 40.1544 62.2676 35.6589C63.2138 35.5868 64.1643 35.5571 65.1148 35.5656C65.1021 36.2526 65.081 36.9397 65.0599 37.631Z" fill="#767777"/>
<path d="M86.6197 37.3554C88.7361 34.1533 94.5657 34.3824 95.664 38.3393C96.3568 41.906 95.8372 45.5873 95.9935 49.2007C95.005 49.1964 94.0123 49.1879 93.0238 49.1667C93.0365 46.2107 93.0956 43.2547 93.0111 40.2987C93.0111 38.3478 90.637 37.3426 89.0191 38.0763C87.435 38.6277 86.6915 40.4004 86.7126 41.9824C86.6704 44.387 86.7253 46.796 86.7042 49.2007C85.7284 49.1964 84.7568 49.1879 83.7852 49.171C83.8105 44.6585 83.8147 40.1417 83.7852 35.6292C84.7145 35.5868 85.6481 35.5699 86.5859 35.5614C86.5943 36.1594 86.607 36.7574 86.6197 37.3554Z" fill="#767777"/>
<path d="M101.131 36.6131C103.822 34.3569 108.359 34.6919 110.539 37.508C111.776 39.0645 112.068 41.1426 111.899 43.0723C108.418 43.0256 104.933 43.0723 101.452 43.0426C101.49 45.4091 103.759 47.3218 106.078 46.9528C107.497 46.9528 108.486 45.829 109.364 44.8662C110.167 45.2607 110.948 45.689 111.709 46.1598C110.877 47.22 109.994 48.3185 108.743 48.908C105.976 50.2863 102.322 49.6799 100.257 47.3388C97.6586 44.3022 98.0599 39.179 101.131 36.6131ZM101.57 40.7609C104.063 40.7906 106.559 40.7863 109.056 40.7651C108.76 39.0857 107.375 37.6564 105.613 37.6691C103.674 37.4741 102.043 38.9542 101.57 40.7609Z" fill="#767777"/>
<path d="M117.429 37.5547C118.54 35.7099 120.847 34.709 122.934 35.3451C123.398 36.2485 123.048 37.4063 123.166 38.3987C122.123 38.2078 121.037 37.8601 119.985 38.2121C118.435 38.6998 117.548 40.4047 117.552 41.9612C117.514 44.3744 117.56 46.7918 117.543 49.2049C116.563 49.2049 115.583 49.188 114.607 49.1456C114.675 44.6416 114.641 40.1333 114.624 35.6293C115.558 35.5869 116.496 35.5699 117.434 35.5614C117.434 36.2273 117.429 36.8889 117.429 37.5547Z" fill="#767777"/>
<path d="M35.7461 69.8334C36.2361 69.2482 36.6586 68.3109 37.5795 68.4466C40.3971 68.4763 43.2274 68.3406 46.0408 68.5229C47.0082 68.7944 47.3715 69.8716 47.3081 70.7877C47.2997 76.4707 47.3504 82.1622 47.287 87.8452C47.363 88.7444 46.5477 89.5417 45.6606 89.4823C42.6994 89.5205 39.7339 89.4484 36.7726 89.5077C36.3713 89.0031 35.7081 88.545 35.7968 87.8071C35.7503 81.8187 35.8602 75.8261 35.7461 69.8334ZM36.9669 70.1897C36.9712 75.5631 36.9712 80.9365 36.9669 86.31C39.9409 86.3057 42.919 86.2633 45.893 86.3354C45.969 80.945 45.9268 75.5546 45.9141 70.1642C42.9317 70.177 39.9493 70.1473 36.9669 70.1897Z" fill="#767777"/>
<path d="M123.593 70.8725C123.571 70.1685 124.505 70.0412 125.037 70.0497C127.572 70.0243 130.107 70.0497 132.637 70.037C133.325 69.9776 133.968 70.2406 134.572 70.5375C134.529 71.7801 134.542 73.0227 134.61 74.2654C135.269 74.3671 135.978 74.452 136.46 74.9736C135.442 74.6259 134.398 74.3671 133.338 74.2102C133.338 73.96 133.338 73.4596 133.338 73.2093C133.317 72.5011 133.283 71.7928 133.258 71.0888C130.449 71.1439 127.64 71.1482 124.835 71.0888C124.792 71.7928 124.746 72.5011 124.716 73.2136C124.619 77.5437 124.653 81.8781 124.763 86.2125C127.61 86.1785 130.461 86.2846 133.309 86.1446C133.309 85.2582 133.325 84.3718 133.351 83.4897C133.63 83.4855 134.183 83.4812 134.462 83.477C134.605 84.7535 134.656 86.0555 134.453 87.3279C134.115 87.8198 133.659 88.0446 133.076 88.0064C130.085 88.0701 127.09 87.9725 124.1 88.0319C123.732 87.4424 123.504 86.7808 123.576 86.0768C123.605 81.0087 123.563 75.9406 123.593 70.8725Z" fill="#767777"/>
<path d="M49.576 17.6132C52.2711 16.2221 55.9885 18.5675 55.7182 21.6507C55.9928 24.8018 52.2711 27.0369 49.538 25.6628C46.15 24.3777 46.2134 18.8983 49.576 17.6132ZM50.3659 19.2163C48.2284 20.0858 48.4861 23.6567 50.7123 24.1996C52.1571 24.717 53.7539 23.5295 53.8214 22.0239C54.227 20.1621 52.1233 18.2579 50.3659 19.2163Z" fill="#F17017"/>
<path d="M80.5411 17.6301C82.8222 16.3366 85.7666 18.1094 86.1594 20.5946C84.2162 21.3623 82.3153 22.219 80.3594 22.9569C81.1071 24.7127 83.6459 24.683 84.6387 23.169C85.1583 23.4913 85.6736 23.8178 86.189 24.1487C84.702 26.2353 81.4113 26.7484 79.5441 24.9036C77.3179 22.9866 77.8248 18.8473 80.5411 17.6301ZM81.2592 19.2502C80.3932 19.6531 80.2116 20.6795 79.9496 21.4937C81.3183 21.0357 82.6363 20.4462 83.9754 19.9118C83.4896 18.894 82.1632 18.6607 81.2592 19.2502Z" fill="#F17017"/>
<path d="M100.398 70.2958C101.568 69.1676 103.334 69.4475 104.809 69.49C105.658 69.4772 106.236 70.1134 106.697 70.7411C106.633 76.3011 106.663 81.8612 106.684 87.417C105.087 89.3551 102.325 88.2482 100.166 88.5196C100.158 84.1641 100.162 79.8085 100.191 75.4487C100.259 73.7353 100.048 71.9837 100.398 70.2958Z" fill="#F17017"/>
<path d="M59.2472 17.5157C61.5072 16.5699 64.5276 17.9101 65.0556 20.3911C66.0146 22.9188 63.9658 25.9766 61.2664 26.019C58.905 26.3625 56.5901 24.4371 56.4549 22.0579C56.2268 20.1366 57.4603 18.1985 59.2472 17.5157ZM59.7119 19.2715C58.0644 20.2384 57.9376 23.0715 59.7034 23.9833C61.1608 24.8654 63.1251 23.7882 63.273 22.1172C63.7799 20.1621 61.5157 18.2027 59.7119 19.2715Z" fill="#FFC415"/>
<path d="M94.419 75.7456C96.2819 75.1773 98.2758 75.5166 100.194 75.4487C100.164 79.8086 100.16 84.1641 100.168 88.5197C96.3157 88.4391 92.4631 88.4858 88.6105 88.4349C88.3106 88.0108 88.0149 87.5867 87.7149 87.1626C87.7403 85.8775 87.6473 84.5925 87.7529 83.3117C88.0698 82.7815 88.5598 82.3871 88.978 81.9376C89.6497 81.9503 90.9023 81.9204 90.9023 81.9204H91.2453L91.897 81.8952L92.6743 81.7882H93.2103C93.2103 81.7882 93.422 81.9418 93.629 81.9164C94.081 79.9103 93.0967 77.4929 94.419 75.7456Z" fill="#FFC415"/>
<path d="M75.6237 12.8674C76.1771 12.8717 76.7304 12.8674 77.2838 12.8674C77.4021 17.1721 77.3514 21.4853 77.3134 25.79C76.7347 25.7857 76.1559 25.7815 75.5772 25.773C75.5856 21.4726 75.535 17.1721 75.6237 12.8674Z" fill="#1D9B5B"/>
<path d="M14.4434 79.202C15.4276 75.8134 16.8766 72.569 17.6834 69.1252C19.1028 72.2212 19.8885 75.5802 21.0587 78.7822C22.1824 81.9927 23.3145 85.2201 24.0706 88.5324C22.233 88.4985 20.3743 88.6766 18.5452 88.4391C17.1258 87.6927 17.0709 85.8563 16.5091 84.5288C15.7867 82.7645 15.4403 80.8348 14.4434 79.202Z" fill="#1D9B5B"/>
<path d="M129.473 78.4599C129.456 76.2672 131.416 74.7744 133.338 74.2103C134.398 74.3672 135.442 74.626 136.46 74.9737C139.248 76.4369 139.206 81.1869 136.519 82.7434C135.911 83.1632 135.201 83.4304 134.462 83.4771C134.183 83.4813 133.629 83.4856 133.351 83.4898C131.053 83.0954 129.114 80.8603 129.473 78.4599ZM133.507 78.7864C132.848 78.2054 132.071 77.8958 131.336 78.5744C131.969 79.4099 132.493 80.521 133.507 80.9282C134.656 79.9867 135.543 78.7483 136.785 77.9085C136.409 77.5056 136.02 77.1239 135.615 76.7592C134.952 77.476 134.255 78.1588 133.507 78.7864Z" fill="#1D9B5B"/>
<path d="M42.5563 75.0245L42.6619 74.6937C43.6758 76.9585 44.4108 79.3462 45.1374 81.7169C44.2672 81.7805 43.3927 81.7297 42.5394 81.5515C42.3409 80.5125 41.9396 79.5285 41.4453 78.5955C41.8973 77.4335 42.2015 76.2163 42.5563 75.0245Z" fill="#1D9B5B"/>
<path d="M119.331 76.5005C120.467 76.5005 121.603 76.5005 122.744 76.5047C122.731 76.755 122.714 77.2554 122.702 77.5014C121.574 77.5183 120.446 77.5014 119.322 77.4462C119.326 77.2087 119.331 76.738 119.331 76.5005Z" fill="#1D9B5B"/>
<path d="M125.354 76.5599C126.334 76.5133 127.314 76.4921 128.298 76.4751C128.286 76.738 128.269 77.2597 128.256 77.5226C127.242 77.5226 126.228 77.5014 125.219 77.4463C125.253 77.2258 125.32 76.7805 125.354 76.5599Z" fill="#1D9B5B"/>
<path d="M118.291 78.4514C119.808 78.3454 121.337 78.3157 122.853 78.4853C122.803 78.7313 122.697 79.219 122.646 79.465C121.282 79.4438 119.922 79.4438 118.557 79.4693C118.49 79.2148 118.354 78.7059 118.291 78.4514Z" fill="#1D9B5B"/>
<path d="M125.121 78.6508C125.941 78.286 126.853 78.3878 127.728 78.3369C127.723 78.7144 127.723 79.0918 127.723 79.4693C126.853 79.3887 125.408 79.7959 125.121 78.6508Z" fill="#1D9B5B"/>
<path d="M119.376 80.381C120.487 80.3513 121.602 80.3429 122.721 80.3217C122.721 80.5592 122.73 81.0299 122.73 81.2674C121.581 81.2674 120.436 81.2674 119.287 81.2547C119.308 81.0342 119.35 80.6016 119.376 80.381Z" fill="#1D9B5B"/>
<path d="M125.266 80.3768C126.241 80.3344 127.222 80.275 128.202 80.3641C128.24 80.5888 128.311 81.0384 128.349 81.2589C127.319 81.2716 126.292 81.2547 125.266 81.2123C125.266 81.0045 125.266 80.5846 125.266 80.3768Z" fill="#1D9B5B"/>
<path d="M71.6576 70.2491C73.284 69.6638 75.054 69.931 76.731 70.1176C76.7268 74.8931 76.7522 79.6727 76.7226 84.4524C76.8197 85.6484 76.0847 86.7002 75.1849 87.4042C73.4403 88.4009 71.4253 88.6596 69.4609 88.3076C70.3185 87.1158 71.7717 86.0895 71.666 84.4524C71.7717 80.8984 71.7041 77.3444 71.7167 73.7904C71.6998 72.6114 71.6872 71.4281 71.6576 70.2491Z" fill="#2E68B2"/>
<path d="M40.3179 74.7913C41.0319 74.6556 41.7415 74.5156 42.4555 74.4011L42.5568 75.0246C42.202 76.2163 41.8978 77.4335 41.4458 78.5955L41.3233 78.9009C40.9093 79.7449 40.8713 80.7882 40.2334 81.5092C39.5576 81.8272 38.7634 81.6576 38.041 81.7255C38.8901 79.4438 39.3759 77.0391 40.3179 74.7913Z" fill="#2E68B2"/>
<path d="M0.84497 0H18.2535C18.2957 20.8152 18.2535 41.6304 18.2746 62.4498C12.4661 62.4159 6.65767 62.488 0.849194 62.4074C0.828072 41.6049 0.836521 20.8025 0.84497 0Z" fill="#4386F3"/>
<path d="M11.4778 68.8877C13.5646 68.9513 15.6557 68.9386 17.7425 68.8962C17.7256 68.9513 17.7002 69.0701 17.6834 69.1252C16.8765 72.569 15.4276 75.8134 14.4433 79.202C13.5012 82.0902 12.5846 85.008 11.4271 87.8156C9.66555 89.4145 6.90705 88.8631 4.76953 88.5239C7.18586 82.0435 9.03612 75.3638 11.4778 68.8877Z" fill="#4386F3"/>
<path d="M157.817 69.6045C158.916 69.7657 159.866 70.3721 160.922 70.6605C162.084 70.6944 163.064 69.6554 164.196 69.736C165.016 70.3806 165.324 71.4706 165.797 72.3697C166.946 72.6284 168.095 72.8956 169.232 73.2306C168.953 74.3121 168.805 75.4232 168.792 76.5429C169.519 77.2936 170.254 78.0442 171.044 78.7313C170.533 79.8128 169.574 80.5719 168.771 81.4244C168.847 82.5058 169.02 83.5788 169.253 84.6433C168.15 84.9826 167.022 85.2371 165.907 85.5255C165.371 86.59 164.788 87.6375 163.989 88.5282C163.056 87.909 162.029 87.4636 160.986 87.0735C160.035 87.4976 159.102 87.9641 158.206 88.4942C157.45 87.6121 156.922 86.573 156.36 85.5679C155.304 85.3049 154.252 85.0505 153.179 84.8893C153.107 83.7442 153.221 82.6034 153.217 81.4583C152.626 80.5507 151.772 79.8297 151.215 78.8924C151.87 78.1418 152.588 77.4378 153.158 76.6192C153.34 75.4784 153.103 74.3163 153.023 73.1755C154.163 72.8871 155.304 72.6029 156.445 72.3018C156.892 71.3985 157.361 70.5036 157.817 69.6045ZM160.124 80.0757C159.22 79.3462 158.426 78.4895 157.551 77.7261C157.049 78.1248 156.571 78.5532 156.069 78.9518C157.404 80.3386 158.861 81.6025 160.17 83.0105C162.126 81.0724 164.112 79.1554 166.021 77.179C166.68 76.598 165.671 75.9576 165.434 75.4232C163.398 76.6319 162.194 78.9645 160.124 80.0757Z" fill="#4386F3"/>
<path d="M66.8384 77.4759C66.7286 76.1781 66.454 74.8464 67.0158 73.608C68.5831 73.6462 70.163 73.5147 71.7175 73.7904C71.7049 77.3444 71.7724 80.8984 71.6668 84.4525C71.7724 86.0895 70.3193 87.1158 69.4617 88.3076C71.426 88.6596 73.4411 88.4009 75.1857 87.4042C74.721 87.8496 74.2817 88.4645 73.5636 88.4391C70.0236 88.6384 66.4793 88.3627 62.9393 88.4688C61.3763 88.6554 59.8133 88.4136 58.2461 88.3966C60.7131 88.0658 63.9194 88.9522 65.6767 86.6917C67.5185 84.0071 66.7455 80.5295 66.8384 77.4759Z" fill="#4386F3"/>
<path d="M35.2301 14.2076C37.7394 11.8157 41.913 11.8623 44.5152 14.0931C44.1435 14.6148 43.7253 15.0983 43.2817 15.5521C42.4411 15.0092 41.5793 14.407 40.557 14.2755C38.3181 13.9447 35.9863 15.4036 35.2724 17.5538C34.8204 19.3393 35.0527 21.4641 36.4847 22.7534C38.1872 24.5686 41.3639 24.7 43.155 22.957C43.9069 22.325 44.1224 21.3242 44.4012 20.4293C42.872 20.4166 41.3427 20.4293 39.8135 20.3657C39.8135 19.8058 39.8093 19.246 39.8051 18.6862C41.9468 18.6396 44.0843 18.665 46.2261 18.6608C46.3528 20.5735 46.0825 22.6728 44.6673 24.0851C41.9468 27.1302 36.5777 26.4813 34.2965 23.2157C32.2435 20.5523 32.6955 16.396 35.2301 14.2076Z" fill="#4386F3"/>
<path d="M66.0174 21.6592C65.7344 18.4572 69.9588 15.7599 72.468 18.1349C72.506 17.961 72.5821 17.6047 72.6201 17.4266C73.2115 17.4266 73.8071 17.4266 74.4028 17.4266C74.3774 20.2469 74.4577 23.0715 74.3732 25.896C74.3478 27.7239 73.1186 29.6282 71.2176 29.8869C69.2322 30.4043 67.0144 29.2634 66.3216 27.3253C66.8454 27.1344 67.3692 26.9436 67.8973 26.757C68.683 27.8257 70.0221 28.7757 71.357 28.0166C72.5103 27.5204 72.5145 26.1675 72.5947 25.103C70.0559 27.461 65.7513 24.946 66.0174 21.6592ZM69.3969 19.2121C67.5847 20.0137 67.3523 22.8721 69.059 23.9155C70.3685 24.84 72.3159 24.013 72.5905 22.4396C73.3171 20.6032 71.2979 18.173 69.3969 19.2121Z" fill="#4386F3"/>
<path d="M124.833 71.0889C127.638 71.1482 130.447 71.144 133.256 71.0889C133.282 71.7929 133.316 72.5011 133.337 73.2094C130.46 73.2179 127.587 73.2137 124.715 73.2137C124.744 72.5012 124.791 71.7929 124.833 71.0889ZM127.858 71.9244C127.777 72.0304 127.621 72.2424 127.545 72.3485C129.332 72.3612 131.123 72.323 132.914 72.3485C132.923 72.2255 132.94 71.9837 132.948 71.865C131.254 71.9116 129.543 71.7505 127.858 71.9244Z" fill="#96C9EC"/>
<path d="M61.8107 77.7388C63.3526 77.0602 65.1817 77.5352 66.8376 77.4759C66.7447 80.5294 67.5178 84.0071 65.6759 86.6917C63.9186 88.9522 60.7123 88.0658 58.2453 88.3966C58.2326 86.7214 58.2326 85.0462 58.2833 83.371C59.3225 83.354 60.3659 83.3285 61.4094 83.2946C61.8276 81.4625 61.2488 79.5201 61.8107 77.7388Z" fill="#96C9EC"/>
</g>
<defs>
<clipPath id="clip0_280_3211">
<rect width="177" height="95" fill="white"/>
</clipPath>
</defs>
</svg>
