<svg width="41" height="48" viewBox="0 0 41 48" fill="none" xmlns="http://www.w3.org/2000/svg">
<path d="M1.94044 2.98736V45.0708C1.94044 45.3922 2.00375 45.7103 2.12675 46.0072C2.24975 46.304 2.43003 46.5737 2.65729 46.8009C2.88456 47.028 3.15435 47.2081 3.45125 47.331C3.74816 47.4538 4.06636 47.517 4.38767 47.5168H37.6817C38.3306 47.5168 38.9528 47.2592 39.4117 46.8005C39.8707 46.3418 40.1286 45.7197 40.129 45.0708V10.9126L29.7503 0.535157H4.38767C4.06583 0.534992 3.74712 0.598344 3.44981 0.721582C3.1525 0.844819 2.88244 1.02552 2.65509 1.25332C2.42775 1.48113 2.2476 1.75156 2.12496 2.04912C2.00233 2.34668 1.93962 2.66552 1.94044 2.98736Z" fill="white"/>
<path d="M1.93919 19.8745C1.45907 19.8745 0.998618 19.6837 0.659124 19.3443C0.31963 19.0048 0.128906 18.5443 0.128906 18.0642C0.128906 17.5841 0.31963 17.1236 0.659124 16.7841C0.998618 16.4446 1.45907 16.2539 1.93919 16.2539V19.8745Z" fill="#D20000"/>
<path d="M1.93672 5.58203C1.45726 5.58203 0.997437 5.77249 0.658409 6.11152C0.319381 6.45055 0.128917 6.91037 0.128917 7.38983V18.0678C0.1281 17.8295 0.17432 17.5934 0.264929 17.3731C0.355539 17.1527 0.488754 16.9524 0.656935 16.7837C0.825117 16.6149 1.02496 16.481 1.245 16.3897C1.46504 16.2983 1.70094 16.2513 1.9392 16.2513H24.3281C24.4158 16.2514 24.5026 16.2343 24.5836 16.2009C24.6647 16.1674 24.7383 16.1184 24.8004 16.0564C24.8624 15.9945 24.9116 15.9209 24.9452 15.84C24.9788 15.759 24.9961 15.6722 24.9961 15.5845V6.24878C24.9961 6.16112 24.9788 6.07431 24.9452 5.99334C24.9116 5.91237 24.8624 5.83881 24.8004 5.77688C24.7383 5.71495 24.6647 5.66586 24.5836 5.63243C24.5026 5.59899 24.4158 5.58187 24.3281 5.58203H1.93672Z" fill="#FF0000"/>
<g opacity="0.5">
<path d="M12.3773 39.4817C12.0478 39.4923 11.7213 39.4163 11.4302 39.2614C11.1392 39.1065 10.8938 38.8781 10.7185 38.5989C10.2008 37.7298 10.3771 36.3156 12.4233 34.9312L12.5474 34.8455C13.3359 34.3116 13.6016 34.1316 14.9798 33.5865C15.9984 33.1824 17.0418 32.844 18.1037 32.5733C18.5034 31.9086 18.8488 31.2126 19.1367 30.4924C17.504 28.1842 16.5802 25.7469 16.5802 23.6933C16.5789 23.073 16.7384 22.4629 17.0433 21.9227C17.3935 21.3193 17.8839 20.9455 18.4265 20.8698C19.0361 20.7841 20.1648 21.0126 20.8787 23.507C21.5777 25.9605 21.3356 28.2612 20.6602 30.2751L20.7843 30.439C21.194 30.9599 21.6325 31.4573 22.098 31.9289C23.5184 31.8309 24.9455 31.9018 26.3493 32.14C29.2559 32.6453 31.1407 33.6424 31.5219 34.8716C31.6054 35.1257 31.6148 35.3985 31.5488 35.6577C31.4828 35.917 31.3443 36.1521 31.1494 36.3354C30.3374 37.1226 28.6078 37.1934 26.6336 36.5192C24.9326 35.9369 23.1794 34.8145 21.5988 33.3233C20.7102 33.4113 19.8281 33.556 18.9579 33.7566C18.1792 34.9611 17.2752 36.0798 16.2611 37.0941C15.4519 37.946 14.5081 38.6591 13.4675 39.2048C13.1315 39.383 12.7576 39.4779 12.3773 39.4817ZM16.903 34.3364C16.3952 34.5028 15.9209 34.6766 15.4839 34.848C14.2422 35.3384 14.0659 35.4601 13.3135 35.9654L13.1894 36.0499C12.3376 36.626 11.6175 37.4479 11.8881 37.9011C12.021 38.1221 12.4245 38.2227 12.8479 38.0017C13.767 37.5212 14.6002 36.8919 15.3138 36.1393C15.8778 35.5712 16.4065 34.9692 16.8968 34.3364H16.903ZM23.5668 33.245C24.7103 34.1552 25.911 34.8443 27.0769 35.2428C28.835 35.8438 29.9326 35.6389 30.2107 35.367C30.2529 35.326 30.2505 35.3186 30.2368 35.2739C30.094 34.8132 28.8822 33.9528 26.127 33.4735C25.2791 33.3287 24.4208 33.2523 23.5606 33.245H23.5668ZM20.0903 31.7228C20.0158 31.8842 19.9388 32.0432 19.8606 32.2008C20.0456 32.1686 20.2331 32.1375 20.423 32.1102C20.3051 31.9823 20.1995 31.8532 20.0841 31.7228H20.0903ZM18.6227 22.2095H18.614C18.3756 22.243 17.9361 22.8763 17.9361 23.692C17.9361 25.2229 18.5569 27.0332 19.6619 28.8336C20.0632 27.2019 20.0337 25.4939 19.5762 23.877C19.1764 22.479 18.7357 22.2095 18.6227 22.2095Z" fill="#FF0000"/>
</g>
<path d="M29.748 0.539062L40.1268 10.9116H32.1183C31.4912 10.9129 30.8892 10.6651 30.4448 10.2227C30.0003 9.78036 29.7497 9.17958 29.748 8.55248V0.539062Z" fill="#F1F1F1"/>
<path d="M9.36883 9.9596C9.36822 10.2487 9.31008 10.5348 9.1978 10.8012C9.08552 11.0676 8.92135 11.3091 8.71485 11.5114C8.50834 11.7137 8.26364 11.873 7.99499 11.9798C7.72634 12.0866 7.43912 12.1389 7.15005 12.1337H6.19897V14.1203H4.75V7.78552H7.15005C7.43912 7.78025 7.72634 7.83255 7.99499 7.93938C8.26364 8.04621 8.50834 8.20544 8.71485 8.40779C8.92135 8.61013 9.08552 8.85154 9.1978 9.11796C9.31008 9.38438 9.36822 9.67048 9.36883 9.9596ZM7.91986 9.9596C7.9254 9.85487 7.90963 9.75012 7.8735 9.65167C7.83737 9.55322 7.78163 9.46313 7.70965 9.38686C7.63768 9.31059 7.55097 9.24973 7.45478 9.20796C7.35859 9.16619 7.25492 9.14438 7.15005 9.14385H6.19897V10.7741H7.15005C7.25486 10.7737 7.3585 10.7521 7.45469 10.7105C7.55088 10.6688 7.6376 10.6081 7.70959 10.5319C7.78158 10.4557 7.83734 10.3657 7.87349 10.2673C7.90963 10.169 7.92541 10.0643 7.91986 9.9596Z" fill="white"/>
<path d="M15.7086 10.955C15.7086 12.7492 14.3764 14.1249 12.6282 14.1249H10.0928V7.78516H12.6244C14.3764 7.78516 15.7086 9.16211 15.7086 10.955ZM14.313 10.955C14.313 9.86859 13.6252 9.18074 12.6282 9.18074H11.5417V12.7305H12.6244C13.6252 12.7305 14.313 12.0427 14.313 10.955Z" fill="white"/>
<path d="M17.9724 9.17577V10.3975H20.3315V11.7931H17.9724V14.1199H16.5234V7.78516H20.3725V9.17577H17.9724Z" fill="white"/>
</svg>
