<?xml version="1.0" encoding="UTF-8"?>
<svg width="340px" height="164px" viewBox="0 0 340 164" version="1.1" xmlns="http://www.w3.org/2000/svg" xmlns:xlink="http://www.w3.org/1999/xlink">
    <!-- Generator: Sketch 51.3 (57544) - http://www.bohemiancoding.com/sketch -->
    <title>Group 3</title>
    <desc>Created with Sketch.</desc>
    <defs>
        <polygon id="path-1" points="0.0887671927 0.108924463 65.7911276 0.108924463 65.7911276 44.959173 0.0887671927 44.959173"></polygon>
        <polygon id="path-3" points="0.0523739866 0.0524142743 36.6818002 0.0524142743 36.6818002 38.1026124 0.0523739866 38.1026124"></polygon>
        <polygon id="path-5" points="0.0189352105 0.0970933136 39.6832325 0.0970933136 39.6832325 41.637185 0.0189352105 41.637185"></polygon>
        <polygon id="path-7" points="0.0361246215 0.110253956 38.7983807 0.110253956 38.7983807 42.2621141 0.0361246215 42.2621141"></polygon>
        <polygon id="path-9" points="0.0552420736 0.129457751 142.778068 0.129457751 142.778068 65.8878181 0.0552420736 65.8878181"></polygon>
        <polygon id="path-11" points="0.0874511284 0.10045062 42.6480298 0.10045062 42.6480298 39.9095753 0.0874511284 39.9095753"></polygon>
    </defs>
    <g id="Page-1" stroke="none" stroke-width="1" fill="none" fill-rule="evenodd">
        <g id="Group-3">
            <path d="M339.400006,98.4368736 C339.400006,134.496229 263.635125,163.728031 170.174821,163.728031 C76.7142472,163.728031 0.949635342,134.496229 0.949635342,98.4368736 C0.949635342,62.3776525 76.7142472,33.1458505 170.174821,33.1458505 C263.635125,33.1458505 339.400006,62.3776525 339.400006,98.4368736" id="Fill-2" fill="#FEFEFE"></path>
            <path d="M333.761167,98.5729923 C333.761167,132.168219 260.398373,159.402423 169.90069,159.402423 C79.4031411,159.402423 6.04034655,132.168219 6.04034655,98.5729923 C6.04034655,64.9777657 79.4031411,37.7435613 169.90069,37.7435613 C260.398373,37.7435613 333.761167,64.9777657 333.761167,98.5729923" id="Fill-20" fill="#002B8B"></path>
            <path d="M272.175711,77.2227501 C272.175711,97.104184 226.546285,113.221137 170.259425,113.221137 C113.972698,113.221137 68.3431384,97.104184 68.3431384,77.2227501 C68.3431384,57.3413162 113.972698,41.2243633 170.259425,41.2243633 C226.546285,41.2243633 272.175711,57.3413162 272.175711,77.2227501" id="Fill-22" fill="#FEFEFE"></path>
            <g id="Group-27" transform="translate(98.675989, 109.167793)">
                <mask id="mask-2" fill="white">
                    <use xlink:href="#path-1"></use>
                </mask>
                <g id="Clip-26"></g>
                <polygon id="Fill-25" fill="#FEFEFE" mask="url(#mask-2)" points="65.7916782 8.10750655 53.379312 44.9591864 35.1198602 43.1933773 31.3132114 16.8242837 21.4380291 41.7592702 3.67492149 38.8903843 0.0885120373 0.108924463 12.7219234 2.59145143 14.6525091 29.2914412 24.8033934 4.41191748 40.581124 6.39810021 45.4907153 33.4636336 53.1593412 7.72195344"></polygon>
            </g>
            <g id="Group-30" transform="translate(167.836510, 116.285284)">
                <mask id="mask-4" fill="white">
                    <use xlink:href="#path-3"></use>
                </mask>
                <g id="Clip-29"></g>
                <path d="M13.3209072,15.5821071 L13.3217129,15.5821071 C16.6625018,15.5862701 20.039281,15.5539057 23.4519163,15.481925 C26.6559956,15.4149132 29.8278448,15.3140597 32.9665238,15.182319 L33.3719522,22.0638579 C30.2879302,22.3642697 27.0671986,22.6092188 23.7183522,22.7812472 C20.2983308,22.9567672 17.0032013,23.0428486 13.8431698,23.056815 L13.8984983,30.8907547 C17.7133389,30.7847981 21.5942513,30.6384196 25.5388182,30.4489332 C29.1260334,30.2767705 32.6569802,30.0731834 36.130987,29.842335 L36.6819882,36.9032884 C30.3515847,37.5132439 23.548741,37.9343845 16.3255625,38.0618278 C10.6282128,38.1628156 5.19407597,38.0717655 0.0520248267,37.8417228 L0.768608397,1.10096834 C5.07321293,1.22841171 9.56488659,1.25553875 14.2295287,1.15549101 C20.959586,1.01152969 27.3345745,0.616844699 33.3172953,0.0524142743 L33.5376689,6.89339697 C31.6085604,7.09537255 29.6442673,7.27814433 27.6449239,7.43701209 C22.6726182,7.83424864 17.8754296,8.05851673 13.2704133,8.14459808 L13.3209072,15.5821071 Z" id="Fill-28" fill="#FEFEFE" mask="url(#mask-4)"></path>
            </g>
            <g id="Group-33" transform="translate(208.527069, 110.779300)">
                <mask id="mask-6" fill="white">
                    <use xlink:href="#path-5"></use>
                </mask>
                <g id="Clip-32"></g>
                <path d="M38.1390056,29.1148066 L39.6832325,36.1204316 C37.3586332,36.6498117 34.1506594,37.3426256 30.3052001,38.0518231 C23.9036218,39.231715 18.9494455,39.8655745 14.9691568,40.3687677 C11.9197822,40.753515 7.97105217,41.2111831 3.32883687,41.6372925 L0.0189352105,5.00652338 C4.56513154,4.50588179 8.40723348,4.01853513 11.3280904,3.6280132 C15.6081195,3.05525665 19.0215605,2.59436557 23.5198145,1.80741285 C27.1532262,1.17113606 30.1644618,0.55460023 32.2911143,0.0970664551 L33.394191,6.88245215 C30.2744472,7.53457543 27.0745309,8.16185464 23.7952479,8.75838091 C20.3221811,9.38982318 16.9180063,9.95747662 13.5897066,10.4679216 L14.4726783,17.9153682 C16.8442798,17.7135269 19.3119004,17.4421222 21.8646622,17.0878592 C26.076605,16.5038221 30.018889,15.7640059 33.6706988,14.9364969 L34.9390893,21.7772111 C31.7027798,22.4881544 28.3175402,23.1567956 24.788205,23.7632595 C21.6411998,24.3037859 18.5853792,24.7595739 15.6310834,25.142844 L16.5132494,32.8103956 C19.2588549,32.4968232 22.0938991,32.1144931 25.0091158,31.6518562 C29.6358875,30.9187547 34.0174415,30.056464 38.1390056,29.1148066" id="Fill-31" fill="#FEFEFE" mask="url(#mask-6)"></path>
            </g>
            <g id="Group-36" transform="translate(248.008997, 103.258933)">
                <mask id="mask-8" fill="white">
                    <use xlink:href="#path-7"></use>
                </mask>
                <g id="Clip-35"></g>
                <path d="M25.7990632,14.1818684 C25.9165689,13.8351257 26.3087024,12.6203178 25.7434662,11.3139226 C25.2246952,10.1138868 24.2192489,9.57524052 23.7576864,9.32773987 C22.6313771,8.72369322 21.5796,8.72208171 20.5029788,8.72033591 C19.4810146,8.71953016 18.7429443,8.86684878 17.5786303,9.10682908 C16.7180854,9.28396058 15.5396707,9.57027171 14.158609,10.0443234 L16.3655682,19.4231615 C18.2803074,19.1112006 19.7905583,18.6164678 20.8340093,18.2092937 C22.6636072,17.4951273 23.4736582,16.8877234 23.7576864,16.6643953 C24.5494736,16.0428907 25.390949,15.3833813 25.7990632,14.1818684 M38.7624306,10.0999204 C38.8327998,11.3219801 38.9421137,13.7533417 37.5493685,16.2232452 C36.7095047,17.7128151 35.6949265,18.5584536 34.4595719,19.5887439 C32.6456862,21.1014121 31.0047689,21.8883648 29.3290699,22.6777348 C27.3843835,23.5946824 25.8801757,24.0812233 23.536507,24.8292313 C21.3660753,25.5227166 19.4397869,26.0416219 17.8551381,26.4287865 L20.7230839,39.0067351 L7.15217818,42.2621141 L0.0357620324,6.29340595 C3.58658403,5.37162379 6.45050105,4.60454632 8.36631462,4.08644673 C12.1634286,3.05951372 16.0311804,2.28169287 19.7855895,1.10757552 C20.4045426,0.914597527 21.6730674,0.509974908 23.4266559,0.279932244 C25.683169,-0.0155107576 27.4432035,0.148325816 28.1158735,0.225275288 C29.6327047,0.398243736 31.4674058,0.607605391 33.5219433,1.71484518 C34.4653465,2.22287285 36.0584557,3.08019473 37.272995,4.91395572 C38.5771073,6.88254615 38.6896442,8.83381288 38.7624306,10.0999204" id="Fill-34" fill="#FEFEFE" mask="url(#mask-8)"></path>
            </g>
            <g id="Group-45" transform="translate(87.126854, 65.522804)" fill="#002B8B">
                <path d="M159.594307,3.15154421 C159.434902,4.7907157 158.625926,6.3009666 158.215126,7.89582164 C157.736777,9.75294949 156.976817,11.4140106 155.456628,14.7365358 C154.684179,16.4252611 154.083221,17.7389081 153.084489,19.4808132 C152.130611,21.1450973 151.168944,22.5805474 150.436783,23.6732837 C149.538636,25.0137891 149.089563,25.6840419 148.836959,25.9902283 C148.112855,26.8679626 147.543859,27.3692756 147.67842,27.5900521 C147.842659,27.8601139 148.913506,27.4772466 149.057601,27.4247383 C149.995499,27.0828302 150.590413,26.5549273 151.043381,26.1559449 C153.401688,24.0788463 152.936768,24.5947972 153.525908,24.0044484 C155.714469,21.812127 157.210754,19.6204771 157.939289,18.5427817 C158.755518,17.335897 159.724839,15.9021927 160.697653,13.8538326 C161.618629,11.9143836 161.467282,11.6887726 162.352536,10.1025123 C162.473937,9.88495879 162.819873,9.07477351 163.51121,7.45453723 C163.779795,6.82510935 164.045559,6.18399803 163.786912,5.90990751 C163.56815,5.67785046 163.186894,5.93461728 162.683567,5.68913101 C162.33387,5.51871411 162.16869,5.22447974 161.911252,4.75136806 C161.432366,3.87108221 161.603723,3.6070636 161.193997,2.93090201 C160.94381,2.51768468 160.404761,1.83225692 160.035726,1.93794494 C159.685358,2.03812697 159.627343,2.81017325 159.594307,3.15154421" id="Fill-37"></path>
                <path d="M166.710737,14.3502575 C166.710737,14.3502575 165.728792,17.3923803 163.676537,20.3633283 C162.425202,22.1753339 160.505494,24.314207 159.097842,25.3835763 C158.28994,25.997292 157.689385,26.8536739 156.891152,27.480013 C156.677627,27.6474755 156.269378,27.9568849 156.339479,28.1969995 C156.39991,28.404481 156.799564,28.498217 157.111794,28.4728358 C157.718392,28.4236848 158.135235,27.9143142 158.270199,27.7557151 C158.869277,27.052695 158.7605,27.5820751 161.525041,25.4938303 C163.163138,24.2567299 163.982187,23.6379111 164.779883,22.7907954 C164.946002,22.6143354 164.782971,22.7796492 166.876185,20.0876262 C167.867933,18.8122525 168.251204,18.3293375 168.420815,17.494711 C168.511328,17.049935 168.49951,16.6095907 168.476009,15.7295734 C168.470503,15.520346 168.443913,14.6818251 168.255367,13.5227485 C168.06212,12.334799 167.96261,11.723232 167.758888,11.7022824 C167.44263,11.669918 167.118448,13.08697 166.710737,14.3502575" id="Fill-39"></path>
                <path d="M8.82473473,4.91681614 C7.94525463,7.56492548 7.33583629,9.3998951 7.0593285,12.0333666 C6.7743603,14.7452648 7.0002399,16.8027567 7.16971675,18.2672139 C7.16971675,18.2672139 7.53270876,21.40455 8.71434648,24.0043141 C8.76994348,24.126923 9.25258991,25.1612421 10.2589762,26.0455567 C10.3946114,26.1648082 10.948567,26.6514834 11.0864852,26.5420352 C11.2056024,26.4474934 10.9521929,25.9563866 10.7554547,25.5490781 C10.7554547,25.5490781 10.2897291,24.584591 9.65210942,22.7907148 C9.38151049,22.0298148 9.37976469,21.1249535 9.37627309,19.3152308 C9.37372154,17.9886917 9.37116999,16.7611261 9.65210942,15.1227603 C9.95574425,13.3517138 10.4257672,12.059285 10.7003949,11.3161116 C11.0163846,10.4601326 11.5436161,9.05597259 12.5760551,7.39934311 C13.2488594,6.31949894 14.413442,4.45068766 15.8859567,3.37218642 C16.3296584,3.04719912 16.6965449,2.69575624 17.4304522,1.99300477 C18.131055,1.32221486 18.2535295,1.13850303 18.2029013,1.0000477 C18.114537,0.758053024 17.5495694,0.797669245 15.8859567,0.834465328 C13.4858852,0.88777936 13.2330129,0.837016881 13.0172052,0.779271204 C11.9153371,0.485036833 11.5672515,-0.0436718473 11.0314254,0.172538713 C10.5710714,0.358130634 10.4318104,0.907386032 10.2039164,1.60678019 C9.59328941,3.48002311 9.66043554,2.40031323 8.82473473,4.91681614" id="Fill-41"></path>
                <path d="M5.01812623,4.42036447 C4.04450725,7.51378698 3.51660433,8.49130044 3.14246605,9.77150868 C2.75382421,11.1015394 2.75462997,12.4235125 2.75624148,15.0674588 C2.75624148,15.0674588 2.75852444,18.3329097 3.41843668,19.9773186 C3.75792754,20.8236285 3.91478092,21.1357237 3.91478092,21.1357237 C4.31886637,21.9395973 4.624247,22.2856685 4.5216477,22.4046514 C4.40091895,22.5443154 3.80667564,22.2656589 3.36310826,21.9632327 C2.70789626,21.5167109 2.26782048,20.9409999 1.7634187,20.0323784 C1.31595684,19.2262219 0.837339183,18.3641998 0.494491009,17.0535072 C0.046491985,15.3400721 0.11592109,13.9532358 0.163460555,13.1366045 C0.320716807,10.4367926 1.09544893,10.5032673 0.990969543,8.44752116 C0.969751364,8.02597771 0.891996138,7.13884296 1.322,6.90289143 C1.6608194,6.71676234 2.02179703,7.09654089 2.48053944,6.90289143 C2.73999211,6.79330894 2.85105182,6.57602404 3.19766018,5.79954611 C3.81459888,4.41687287 3.81406171,4.31736229 4.02503487,3.97908006 C4.43086612,3.32856829 5.08433233,2.65160094 5.29409686,2.76534649 C5.49204367,2.8730489 5.25528639,3.66711911 5.01812623,4.42036447" id="Fill-43"></path>
            </g>
            <g id="Group-48" transform="translate(99.750327, 43.498872)">
                <mask id="mask-10" fill="white">
                    <use xlink:href="#path-9"></use>
                </mask>
                <g id="Clip-47"></g>
                <path d="M129.207525,23.3546618 L142.77843,22.6926009 C142.467141,24.2219213 141.98718,26.2533605 141.233532,28.5951492 C140.795605,29.95647 139.431061,34.0153196 136.709494,38.9116159 C133.771045,44.1992399 130.781296,47.7095056 130.089422,48.510559 C127.100613,51.9711366 124.450087,54.1433141 122.145497,56.0134683 C119.178981,58.4206573 117.346831,59.8836374 114.422483,61.1438361 C112.561595,61.9448895 110.570577,62.8030171 107.802545,62.9089737 C106.985779,62.9403981 101.575681,63.0644842 97.155182,59.1579219 C95.138515,57.3746548 94.1068817,55.4416518 93.5697126,54.4131073 C93.0226059,53.3654933 92.2521712,51.6367489 91.6392612,48.2896482 C91.2451134,46.1439263 91.0168165,43.8798929 91.0318573,38.9116159 C91.0507925,32.6971067 91.4371513,26.903738 91.5836642,24.8440974 C91.8260618,21.4357595 92.14138,17.9891483 91.8593663,17.9485921 C91.7484408,17.9320741 91.6078368,18.452591 91.3080965,19.3272365 C91.1070609,19.9139595 90.585604,21.134542 89.5422874,23.5755726 C87.2683163,28.8997241 83.5844107,36.594537 83.5844107,36.594537 C80.2876696,43.4826563 78.6382919,46.926716 76.9096818,50.3310251 C74.8444009,54.3964551 72.0597164,59.7090574 68.5792635,65.8879792 L61.9038632,65.7778595 C60.9149349,59.2895284 60.1569893,53.6534159 59.5869186,49.1170229 C58.4564462,40.1222608 57.8913443,35.6248125 57.877378,34.1121444 C57.8623372,32.5207809 57.407355,28.2326944 56.4977934,19.658267 C56.4575057,19.2735196 56.3480575,18.2845913 56.166763,18.2796225 C55.9749936,18.2738479 55.8028309,19.3711501 55.7257472,19.8237151 C55.652155,20.2549276 55.6239536,20.3384574 53.7943557,26.1127565 C52.0657455,31.5691859 52.0508391,31.6230371 51.9195012,31.9606479 C51.0304864,34.2262928 50.1734331,35.8647928 49.4913627,37.1464783 C45.7470255,44.1884965 43.8743197,47.7095056 42.4304092,49.5589788 C40.2333876,52.3724019 37.7740932,55.5227644 33.3279446,57.723009 C29.8524606,59.4434273 26.765887,59.7909757 24.8876753,59.9854309 C23.0241014,60.1782746 18.3652338,60.4678088 12.9716533,58.6059807 C11.214976,57.9993825 9.1874313,57.2803817 6.95831385,55.5715125 C4.05034897,53.3422607 2.5897862,50.801048 2.10405105,49.8900093 C1.62100174,48.9847451 0.535114421,46.7529418 0.172659576,43.6556248 C0.0444104548,42.5550996 -0.125872148,40.2057906 0.559152738,37.3665833 C0.961223805,35.701762 1.49006678,34.5614863 2.15870801,33.119053 C2.47308622,32.44222 3.56380806,30.1517309 5.52407237,27.436744 C6.37078516,26.2649097 7.51253807,24.8283852 8.9996907,23.2991991 L22.2948943,24.568664 C21.9747416,25.2057465 21.4841719,26.169025 20.8601157,27.3266244 C18.8195446,31.1140694 18.2907016,31.5369557 17.4399601,33.4500835 C16.3105621,35.9888789 15.949853,38.1469557 15.7296137,39.5180798 C15.4110724,41.5065455 15.1290586,43.263357 15.5642999,45.5315535 C15.8512825,47.0267637 16.1906391,48.7943186 17.7156621,50.165577 C18.0632105,50.477538 19.2232272,51.4440395 20.9709068,51.6550126 C21.8689193,51.7633865 23.1614824,51.7013434 25.1084518,50.6620555 C28.4805307,48.8622705 30.3582053,45.9767324 30.9555373,45.035075 C34.857265,38.8909349 36.8075917,35.8185963 38.5139094,32.0706332 C39.7112593,29.4391761 42.3104862,23.5127238 45.133847,14.527765 C46.8856897,8.95127834 48.1078837,4.16093865 48.9403615,0.571171897 L67.6419034,0.129350318 C67.7701526,1.69251238 67.9676965,4.13770609 68.1927703,7.13578109 C68.7232248,14.1867969 68.7539778,15.5853166 69.2413244,22.2515851 C70.3038449,36.7889923 70.376497,33.119053 70.4551923,36.5392086 C70.528113,39.7243528 70.4601611,42.6973151 71.1717758,42.8281158 C71.5938565,42.905871 72.0026421,41.9310434 73.6543028,38.6360482 C75.9449261,34.0666193 75.8479671,34.5639036 77.5973925,30.9047077 C77.7985624,30.4835671 78.6921431,28.6118014 79.8333589,26.0580996 C81.2176436,22.9607826 82.193277,20.5925383 83.16233,18.2340974 C83.6067032,17.1534475 84.3861355,15.242737 85.6257875,12.1007007 C86.7808354,9.17218913 88.2904148,5.28872517 90.0387659,0.625828852 L107.030499,2.55722033 C106.778029,4.58463078 106.380927,7.84403854 105.92675,11.8797899 C105.26469,17.7648802 105.352382,17.5630389 104.602629,24.4577385 C104.164164,28.4983245 103.889268,32.5547569 103.444089,36.594537 C103.337327,37.5643958 103.051284,40.1296468 103.334238,43.4355197 C103.479811,45.1418374 103.745307,46.6710235 104.271598,48.2896482 C104.787952,49.8767143 105.214061,51.1394646 106.368706,52.3724019 C106.837655,52.8738493 107.824166,53.9007823 109.457697,54.3584504 C110.756706,54.721711 111.830776,54.547131 112.602016,54.4131073 C113.143349,54.3195056 114.672535,54.0033816 116.684099,52.6479697 C117.112625,52.3592413 118.802559,51.188347 121.152674,48.0694089 C123.124488,45.4520525 124.276312,43.1698896 124.683352,42.3317715 C126.478437,38.6426285 127.168431,35.5949997 127.883537,32.3470067 C128.37827,30.0946567 128.923497,27.0395075 129.207525,23.3546618" id="Fill-46" fill="#E2231A" mask="url(#mask-10)"></path>
            </g>
            <g id="Group-51" transform="translate(52.613740, 102.721764)">
                <mask id="mask-12" fill="white">
                    <use xlink:href="#path-11"></use>
                </mask>
                <g id="Clip-50"></g>
                <path d="M42.6480298,7.03735829 L40.1382415,14.1680094 C39.3892935,13.6936891 38.3418138,13.0665442 37.0484449,12.402066 C35.5745872,11.6449262 34.4468007,11.1880639 32.2488391,10.3061665 C29.1425245,9.05818841 28.3663152,8.89421755 27.9458461,8.81646232 C27.0554883,8.65114853 26.1941376,8.65114853 24.4706306,8.65114853 C23.5900762,8.65114853 23.0610989,8.68337868 22.5399106,9.0375074 C21.762224,9.56447028 21.569246,10.4187034 21.5469535,10.526943 C21.3755966,11.3429029 21.6983009,11.9958319 21.8778497,12.3474091 C22.4289852,13.4232245 23.3765515,13.9535447 23.7537785,14.1680094 C25.4502927,15.1277963 27.0109032,16.3170887 28.7186981,17.2570003 C31.2964383,18.675261 32.6123683,19.4025879 33.9038571,20.2913342 C36.3391131,21.9654217 37.1351977,22.9335347 37.6002519,23.6015044 C38.3259673,24.6415981 38.7297842,25.6379125 39.0898218,26.5249129 C39.6483433,27.9018116 39.9519782,28.6515654 39.9727935,29.7248292 C39.9968318,31.0024859 39.603624,31.9625414 39.2552699,32.8138201 C39.1088913,33.1713061 38.6040866,34.3487808 37.5449235,35.6275118 C36.3035257,37.126885 34.9763151,37.9486195 34.4003356,38.2753526 C32.5103061,39.347945 30.8445448,39.5422659 28.9389374,39.7647882 C26.4192115,40.0594254 24.4514268,39.8433491 22.815344,39.6549371 C20.7749072,39.4180455 19.2473326,39.0473988 18.1267979,38.7719654 C15.919973,38.229156 14.3236407,37.6538479 12.8309821,37.1168131 C12.2764893,36.9173891 10.3665846,36.2214865 7.92045085,35.1307647 C6.54435792,34.5167804 5.52158797,34.01117 4.77599727,33.6413291 C3.32214912,32.9205825 1.75079523,32.0965651 0.0874511284,31.1588021 L4.33498144,23.9597962 C6.96227548,25.6236775 9.22953193,26.9130176 10.9549191,27.8490348 C13.495326,29.2266049 14.7333665,29.7687428 16.1681451,30.2072071 C17.2612842,30.5415948 18.3180301,30.7062372 20.4297761,31.0347161 C21.410244,31.1870035 22.3148367,31.302092 23.4087816,31.0347161 C24.5317336,30.7599541 24.9934304,30.2942285 25.1465236,30.124483 C25.294648,29.9606465 25.7712513,29.4178371 25.8084502,28.6350474 C25.8400089,27.9805069 25.549669,27.4394433 25.1465236,26.8974397 C23.9599171,25.3017789 22.358616,24.4578863 22.0432978,24.2908267 C22.0432978,24.2908267 21.6287375,24.0715274 16.7059857,21.1874665 C13.9887158,19.5955659 12.6049682,18.7738315 11.4101699,17.5051724 C9.61951669,15.6043996 8.88144635,13.7449888 8.7206985,13.3262654 C8.29700638,12.2183542 7.63494547,10.488804 7.97591355,8.27862177 C8.45439692,5.1756645 10.5676201,3.32766853 11.1203671,2.85858562 C12.7465123,1.47913539 14.3823265,1.07034971 16.1681451,0.624230774 C18.983314,-0.078923569 21.2762203,0.0880017267 22.7880827,0.21047628 C24.7566731,0.370284085 26.0799892,0.712863674 28.4564253,1.3276537 C32.2299039,2.30422711 35.1502236,3.4551119 36.8556012,4.18243885 C38.4461589,4.8610177 40.4295215,5.79045453 42.6480298,7.03735829" id="Fill-49" fill="#FEFEFE" mask="url(#mask-12)"></path>
            </g>
            <polygon id="Fill-52" fill="#002B8B" points="40.564419 19.4380607 38.2059781 20.4310177 31.4619545 16.2936071 35.8476715 14.9282575"></polygon>
            <path d="M61.1276548,27.5474607 C61.4718459,28.7879185 61.2706761,29.8238491 61.1688825,30.3196561 C61.1053623,30.6298713 60.8743796,31.6377348 60.1345634,32.7193248 C59.8424777,33.1462399 59.2772416,33.9548137 58.2315076,34.5811528 C57.1828193,35.2084321 56.2163178,35.3160002 55.3764539,35.4086618 C54.7028439,35.483194 53.8995075,35.5651123 52.8939269,35.3259378 C51.8281835,35.0726626 51.1074368,34.5952535 50.5356203,34.2088947 C50.0094632,33.8530201 49.2909995,33.2861725 48.5909339,32.4296563 L51.3217673,29.6989573 C51.8810946,30.13581 52.3653526,30.4825527 52.7284789,30.7332763 C53.7446685,31.4358935 54.0043898,31.5229149 54.2592765,31.5607853 C54.965251,31.6659362 55.5361274,31.3778793 55.7488464,31.2712512 C56.0211911,31.1338702 56.7624845,30.760672 57.0314719,29.9472637 C57.3269149,29.0543543 56.8536689,28.236783 56.7419377,28.0439393 C56.2924615,27.2677299 55.6571248,27.0434618 54.0112387,26.2648352 C52.9742337,25.7741313 51.7760781,25.2072836 50.6183444,24.5270932 C49.1596617,23.6689656 48.4296489,23.2403047 47.7634249,22.3755967 C47.4515983,21.9711084 46.604214,20.8390245 46.5222957,19.1484191 C46.5073893,18.8431728 46.4610585,17.347694 47.4326631,15.8385174 C47.6013342,15.5754389 48.7903579,13.7920375 51.0735952,13.3144942 C52.5835775,12.9993102 53.7892535,13.4188392 54.7972513,13.7696107 C56.1824761,14.2521228 57.1770447,14.9637376 57.7761225,15.4659907 L55.4178159,18.6933026 C55.0156106,18.3159413 53.97968,17.4337753 52.6457548,17.2864567 C51.9118475,17.2054785 51.4890955,17.3916076 51.3631293,17.4520391 C51.1803575,17.5398662 50.749145,17.7466763 50.5356203,18.2381861 C50.3344505,18.7006887 50.4165031,19.2087163 50.6183444,19.5621736 C50.6946224,19.6961973 50.7871498,19.7864417 51.6941598,20.3483206 C52.1409502,20.6254998 52.3644125,20.7636866 52.6994717,20.9547845 C53.4102807,21.3619586 53.9655793,21.647464 54.0938284,21.7138044 C55.9713687,22.67762 56.2139005,22.6801716 57.1141959,23.2031057 C58.0608222,23.7534354 58.6467393,24.0934635 59.3070545,24.7340376 C59.8391204,25.2505257 60.730284,26.1142936 61.1276548,27.5474607" id="Fill-55" fill="#002B8B"></path>
            <polygon id="Fill-58" fill="#002B8B" points="67.4307432 19.5480998 70.0232556 31.583239 66.1197821 32.3742205 63.6099938 20.3275321 61.5240319 20.6412389 60.8933954 17.2667426 62.8793095 16.790005 61.6654416 11.3286069 65.5819415 10.6110833 66.6577569 16.1553398 69.0574255 15.7143239 69.7847525 18.9158517"></polygon>
            <path d="M76.174164,18.8864014 C76.4837077,18.3535297 76.8362249,18.0141731 77.0015387,17.8660487 C77.2002912,17.6890515 77.6180745,17.3224336 78.2708692,17.0940025 C78.7756739,16.9170052 79.1711646,16.9102906 79.7322378,16.900353 C80.2130041,16.8929669 80.775823,16.8879981 81.4701141,17.0940025 C81.7785834,17.1850526 82.269556,17.3357286 82.7941016,17.727862 C83.1937554,18.0274681 83.4595198,18.3509781 83.6214763,18.5835724 L75.6504241,20.375837 C75.7065583,20.0101592 75.8389705,19.4647983 76.174164,18.8864014 M82.8221687,25.6719214 C82.1559447,26.0658007 81.5328286,26.1658484 81.0015683,26.251124 C80.6060776,26.3147785 80.1195367,26.3893107 79.4839314,26.3065867 C78.6103601,26.193244 78.0102079,25.8556333 77.8845104,25.7827125 C77.1967996,25.3846702 76.805472,24.8889975 76.6705082,24.7070314 C76.3510269,24.2742074 76.1823558,23.8588414 76.0913056,23.5758876 L88.4490149,21.2862044 C88.3324492,20.2501395 88.0386177,18.9939695 87.3734681,17.7006007 C87.0273969,17.0295422 86.5267553,16.0779471 85.4975393,15.162611 C85.173895,14.8746884 84.1809379,14.0430163 82.6286535,13.5630557 C80.9800816,13.0534165 79.6182236,13.2246392 78.9601915,13.3148836 C78.1525578,13.424869 76.7459805,13.6343649 75.3193937,14.6388711 C73.6427546,15.8188973 72.9511494,17.3852824 72.6159559,18.1698179 C71.8894347,19.8727782 71.8644563,21.3862521 71.8991038,22.1417804 C71.9356313,22.9460569 72.0391706,24.6863504 73.2230913,26.4447735 C74.3171704,28.0691728 75.7272393,28.8088546 76.2849551,29.0927485 C76.6108825,29.2581966 78.2981306,30.0906744 80.6424708,30.0029815 C81.4667568,29.9715571 83.2261198,29.8829242 85.0283221,28.7062553 C86.9339295,27.4617688 87.76399,25.7347702 88.0626561,25.0098605 L84.3117386,24.1278289 C84.0641036,24.5646816 83.6058984,25.2084788 82.8221687,25.6719214" id="Fill-61" fill="#002B8B"></path>
            <path d="M97.523493,10.7223175 L96.8894992,14.1697345 C96.6530105,14.1232694 96.1704983,14.0629721 95.6203029,14.2524585 C95.4274592,14.3194704 95.0244481,14.4634317 94.7099356,14.8316611 C94.3442577,15.2611278 94.2928238,15.7700955 94.2689198,16.0729246 C94.2184259,16.7083956 94.167932,17.3174111 94.3243825,19.1901168 C94.3525838,19.5269219 94.3772936,19.8015496 94.3930058,19.9762638 C94.7190675,22.2609783 95.0459348,24.5456927 95.3719965,26.8304071 L91.8692511,27.5205351 L89.4305034,11.9379312 L92.9449322,11.4671025 L93.1932386,13.2875686 C93.3346484,12.8581019 93.77741,11.702114 94.8753837,11.053348 C95.2735603,10.8183365 95.6407153,10.7181545 95.7309597,10.6942505 C96.5154952,10.4898576 97.1858822,10.6262986 97.523493,10.7223175" id="Fill-63" fill="#002B8B"></path>
            <polygon id="Fill-65" fill="#002B8B" points="112.308361 24.692971 105.150314 18.6365238 105.895233 25.6445661 101.881908 26.0996826 99.3578852 4.50212775 103.205896 4.04701123 104.77819 16.086985 109.867061 9.17737895 114.294275 8.63953839 108.956963 16.897976 117.149194 24.0310444"></polygon>
            <polygon id="Fill-67" fill="#002B8B" points="130.26497 23.0793688 126.541179 23.2448169 125.17583 7.52241469 129.230651 7.27424257"></polygon>
            <path d="M129.322426,3.44863172 C129.322426,4.84795721 128.188059,5.98245833 126.787928,5.98245833 C125.388468,5.98245833 124.253967,4.84795721 124.253967,3.44863172 C124.253967,2.04850048 125.388468,0.913999353 126.787928,0.913999353 C128.188059,0.913999353 129.322426,2.04850048 129.322426,3.44863172" id="Fill-69" fill="#002B8B"></path>
            <path d="M147.559693,21.9208294 L143.959988,21.8794673 C143.956631,21.4068928 143.892977,14.7497563 143.215204,11.9494938 C143.063722,11.3222146 142.804941,10.5750124 142.139522,10.1290277 C141.484042,9.6896234 140.722067,9.73675998 140.40178,9.75663524 C140.12205,9.77395894 139.243241,9.83935928 138.539818,10.4600582 C138.158428,10.7959231 137.784424,11.333898 137.588223,12.3632483 C137.043802,15.2197792 137.826592,22.0582104 137.877891,22.5000319 L133.864701,22.7069763 L133.009662,6.73626772 L136.885069,6.4880956 L137.091744,8.10161726 C137.525374,7.67711939 139.518003,5.81690282 142.30497,5.99148277 C142.844557,6.02545872 144.367163,6.12067194 145.532148,7.23274626 C146.582448,8.2348352 146.810879,9.55479395 146.939128,10.4186961 C147.589371,14.7837322 147.577017,20.1409196 147.559693,21.9208294" id="Fill-71" fill="#002B8B"></path>
            <polygon id="Fill-73" fill="#002B8B" points="173.70852 5.49507138 167.212669 21.424418 164.68878 21.424418 157.737812 5.57779543 161.833995 5.61915745 165.888681 14.8043461 169.695061 5.45370936"></polygon>
            <path d="M180.400962,10.1654746 C180.803839,9.69907757 181.213028,9.4308959 181.403186,9.31594172 C181.630945,9.17869501 182.109563,8.89574119 182.793379,8.79220185 C183.322088,8.71149219 183.712073,8.77823545 184.265222,8.87237434 C184.739274,8.95402404 185.29323,9.05326603 185.937161,9.38416219 C186.223607,9.53080935 186.678052,9.76958102 187.121082,10.2522274 C187.458424,10.6204569 187.659594,10.9876119 187.776025,11.2461246 L179.610518,11.5323014 C179.73353,11.1832758 179.964512,10.6718908 180.400962,10.1654746 M185.678514,18.0641433 C184.950919,18.3278933 184.320148,18.3109725 183.782173,18.2964689 C183.381714,18.2858598 182.889801,18.268939 182.280517,18.0700521 C181.442802,17.7969017 180.915705,17.35414 180.805719,17.2591954 C180.203418,16.7408272 179.910527,16.1812313 179.811688,15.9773756 C179.577885,15.4929834 179.488849,15.0535791 179.451784,14.758539 L192.01993,14.7954693 C192.097014,13.7557786 192.040879,12.4669756 191.626453,11.0728875 C191.410511,10.3493208 191.09479,9.3214477 190.252509,8.23153161 C189.987953,7.88868344 189.16595,6.88766883 187.729157,6.1286489 C186.203597,5.32262668 184.833413,5.23896259 184.170144,5.2057924 C183.356198,5.16456467 181.934849,5.10990772 180.347245,5.83307161 C178.48112,6.68247024 177.511395,8.09388203 177.036807,8.80267665 C176.007725,10.3418004 175.70315,11.8245214 175.597462,12.5734694 C175.484388,13.3706283 175.264014,15.0999099 176.102267,17.0471479 C176.876864,18.8458586 178.125648,19.8338469 178.621052,20.2160427 C178.910855,20.4389678 180.414929,21.5693059 182.735096,21.9169886 C183.550653,22.0386574 185.295916,22.2771605 187.285053,21.4543517 C189.38807,20.5840035 190.523242,19.0404481 190.951098,18.383356 L187.42794,16.8223426 C187.104027,17.2058814 186.534359,17.7537938 185.678514,18.0641433" id="Fill-75" fill="#002B8B"></path>
            <path d="M199.774463,10.6163475 C200.206481,10.1768089 200.632187,9.93548569 200.829194,9.83302068 C201.065414,9.71068042 201.561221,9.459151 202.250275,9.39965952 C202.783147,9.35332868 203.168028,9.44491602 203.714061,9.57437377 C204.181532,9.68637352 204.728102,9.82106867 205.349472,10.1926554 C205.62598,10.357432 206.063907,10.6249422 206.47511,11.1349843 C206.788145,11.5242976 206.965142,11.903539 207.064653,12.1690348 L198.897937,11.9294574 C199.042972,11.5891607 199.306588,11.0936223 199.774463,10.6163475 M204.533244,18.8379891 C203.79007,19.0544682 203.161717,18.9969911 202.625756,18.9478402 C202.226908,18.9115812 201.73701,18.8631017 201.141826,18.6254044 C200.323449,18.2989399 199.825896,17.8231424 199.722089,17.7214831 C199.154704,17.1653788 198.898205,16.5881906 198.812661,16.3784261 C198.610551,15.8799332 198.549851,15.4356943 198.531856,15.1389084 L211.071666,15.9840097 C211.215358,14.9514364 211.242351,13.6615591 210.91817,12.2437013 C210.749499,11.5077796 210.500386,10.4617771 209.729952,9.31988991 C209.487957,8.96079237 208.732026,7.90888099 207.34707,7.05921378 C205.876435,6.1567697 204.514577,5.98500989 203.854933,5.90940334 C203.045017,5.81580162 201.630382,5.66996021 199.999268,6.28945047 C198.082514,7.01704601 197.024157,8.36319175 196.504983,9.04002481 C195.379076,10.5098537 194.979825,11.9698793 194.826061,12.7105012 C194.661956,13.4986626 194.330925,15.2102176 195.042271,17.207278 C195.699229,19.0521852 196.881941,20.1184659 197.351964,20.5316832 C197.62686,20.7727379 199.055059,21.9974834 201.347965,22.4936933 C202.154256,22.6674675 203.880449,23.0178361 205.9182,22.3246194 C208.073054,21.5912493 209.305051,20.1238376 209.774268,19.4957526 L206.358813,17.7112769 C206.010861,18.0731946 205.407083,18.5833709 204.533244,18.8379891" id="Fill-77" fill="#002B8B"></path>
            <path d="M262.124377,18.7189255 C262.603532,18.3314923 263.053949,18.1403944 263.26143,18.061162 C263.510139,17.9666202 264.031328,17.7732394 264.722664,17.7929803 C265.257416,17.8076182 265.629406,17.9425819 266.156906,18.1335455 C266.608799,18.2981878 267.136165,18.4943889 267.711205,18.9345989 C267.967166,19.1298599 268.371788,19.445581 268.721754,19.9992681 C268.98819,20.4217516 269.121005,20.8187195 269.18936,21.0938844 L261.103353,19.9233929 C261.286394,19.6017629 261.604801,19.1396632 262.124377,18.7189255 M265.912897,27.4301967 C265.150117,27.5603259 264.532507,27.4315396 264.005544,27.3215543 C263.61341,27.2399046 263.132375,27.1358281 262.568213,26.8316561 C261.792273,26.4140071 261.352465,25.8844927 261.260878,25.7715529 C260.760505,25.1543456 260.571825,24.5516418 260.510722,24.3334169 C260.366894,23.815183 260.35736,23.3667811 260.373341,23.0699952 L272.734541,25.3414147 C272.995337,24.3319397 273.169245,23.0537458 273.009438,21.6080895 C272.925774,20.8576643 272.797793,19.7900407 272.162725,18.5677124 C271.963167,18.1832337 271.332396,17.0520898 270.053396,16.0497323 C268.695567,14.9851975 267.362045,14.6591358 266.715562,14.5085942 C265.921626,14.3231366 264.532775,14.0166816 262.841767,14.446014 C260.854375,14.9500129 259.649102,16.1664323 259.056068,16.7796108 C257.769682,18.1111187 257.20646,19.5160845 256.969166,20.2342796 C256.716293,20.9986712 256.191613,22.6612095 256.670365,24.7263561 C257.11259,26.6342464 258.165576,27.8285076 258.585373,28.292756 C258.830859,28.5636235 260.109993,29.9434766 262.331188,30.6981992 C263.112231,30.9628893 264.787259,31.5081159 266.890813,31.0520593 C269.11523,30.5695472 270.506901,29.2525429 271.044607,28.681935 L267.855435,26.5192922 C267.46827,26.8391764 266.810506,27.2769692 265.912897,27.4301967" id="Fill-79" fill="#002B8B"></path>
            <path d="M284.941736,19.0302687 L283.057481,21.9860417 C282.855774,21.8540324 282.43141,21.6166036 281.850193,21.5851792 C281.646338,21.5747045 281.218886,21.556575 280.789016,21.7795002 C280.288509,22.0398929 280.049603,22.492055 279.91343,22.7635939 C279.627791,23.3335304 279.35182,23.8788913 278.792358,25.6727675 C278.691639,25.9953375 278.611332,26.2592218 278.560167,26.4269529 C278.002854,28.6665451 277.446347,30.9064059 276.8889,33.1459982 L273.384006,32.4678222 L276.985993,17.1123065 L280.419175,17.9980983 L279.964327,19.7782767 C280.257084,19.4335484 281.102186,18.5289557 282.363727,18.3409465 C282.820858,18.2728603 283.198891,18.3182511 283.291418,18.3299345 C284.095157,18.4357569 284.664825,18.8143268 284.941736,19.0302687" id="Fill-81" fill="#002B8B"></path>
            <polygon id="Fill-83" fill="#002B8B" points="293.847905 37.6017487 289.417603 29.3380736 287.533886 36.1292339 283.634172 35.0770539 289.226774 14.063939 292.972454 15.0551503 290.008624 26.8301654 297.281356 22.2752401 301.596301 23.4024894 293.596779 29.1205201 298.593123 38.7656598"></polygon>
            <polygon id="Fill-85" fill="#002B8B" points="315.872228 19.1486877 309.33488 23.1206502 306.769763 22.0863312 311.5691 17.7916643"></polygon>
            <path d="M221.910126,20.1384486 C219.533556,20.1384486 217.606999,18.2120259 217.606999,15.8354556 C217.606999,13.4588852 219.533556,11.5324625 221.910126,11.5324625 C224.286697,11.5324625 226.21312,13.4588852 226.21312,15.8354556 C226.21312,18.2120259 224.286697,20.1384486 221.910126,20.1384486 Z M226.585378,8.35000425 L226.393474,10.0247632 C226.110386,9.70286461 225.700929,9.28830437 225.137304,8.88784481 C224.705286,8.58085267 223.104253,7.47777594 220.792949,7.52249526 C220.253497,7.53323865 217.998595,7.6382552 216.117698,9.38432334 C214.504848,10.8812793 214.131649,12.6884504 213.883343,13.8941265 C213.701243,14.7779039 213.319047,16.7639523 214.173011,19.0246285 C214.446028,19.7479267 215.012875,21.1902257 216.489956,22.3346644 C217.903382,23.429415 219.351456,23.6321964 220.130888,23.741376 C221.313466,23.9068241 222.524111,24.0764352 223.606506,23.4103455 C224.445565,22.8939917 224.947683,22.0366699 225.178666,22.1690821 C225.206868,22.1847942 225.323433,22.2692641 225.178666,22.913867 C225.016441,23.6370309 224.697094,25.0595889 223.44079,25.7546857 C222.883208,26.0632894 222.278356,26.0798073 221.068383,26.1137833 C220.179771,26.1378216 219.628635,26.1535338 218.964828,25.9085847 C218.0366,25.5668109 217.453235,24.9255653 217.151883,24.527523 L213.014472,23.865462 C213.06416,24.5225541 213.23874,25.6065614 213.924705,26.6790195 C215.189201,28.6575475 217.313973,29.2276182 218.765539,29.6165287 C220.17319,29.9938899 222.195498,30.5366993 224.475378,29.6165287 C224.831118,29.4725673 226.985166,28.5673031 228.199034,26.306627 C228.895876,25.009095 228.987732,23.8149682 229.026543,23.3276215 C229.265717,20.3444529 229.82679,15.3067469 230.557475,8.72226243 L226.585378,8.35000425 Z" id="Fill-87" fill="#002B8B"></path>
            <polygon id="Fill-89" fill="#002B8B" points="256.476232 12.6528898 248.100289 27.465059 245.783344 27.0926665 243.673076 18.072926 239.080683 26.126165 236.653619 25.9068658 233.41234 9.18734343 237.246116 9.77070907 239.080683 18.9832933 243.54899 10.9151478 246.114375 11.1634542 247.893479 20.3486429 252.288194 12.2804974"></polygon>
        </g>
    </g>
</svg>